<svg id="Layer_1" data-name="Layer 1" xmlns="http://www.w3.org/2000/svg" viewBox="0 0 37.23 37.75"><defs><style>.cls-1{fill:#fff;}</style></defs><title>closewindowGOT</title><path class="cls-1" d="M25.25,5.3a3.26,3.26,0,0,1,0,1.08v.3h.49a.63.63,0,0,1,.74-.38v.75c.3,0,.53-.48.6-.71s1.23.86,1.34,0a.8.8,0,0,0-.74-.26h0V5.56h0c-.41-.23-.75.18-.56-.67.26.33.59.18.89.41s.19.33,0,.48a1.41,1.41,0,0,0,.41,0c-.22.82.49.56.41,1.08-.67-.26-.74.3-1.3.38,0,.26,0,.41.41.22.93-.67.33,0,0,.56-.45-.34-.56-.6-1,0-.56,0-.33.71-.82.67s.52.3.71.34.56.63,1,.63-.41-.48-.41-.82a.87.87,0,0,1,.45.56,1.3,1.3,0,0,1,.52-.19c0-.33-.56-.3-.75-.33s1.46-1.42,1.87-.82c-.86.18-.64.82-.9,1.41a1.22,1.22,0,0,1-1.34.64c-.49,0-.86.67-1.27,0,0,.41,0,1,.37,1.3s-.55.68,0,1.12.79,0,.71.71.49.3.41.82-1.53,0-1.86.82c-.6,0-1.94.53-1.68-.71.67,0,1.34.75,1.9,0s-.74-.33-.82-1a2.64,2.64,0,0,0,1.12,0h.63c.42-1-1.34-.63-1.67-.67,0-.63.37-1.27.44-2a1.82,1.82,0,0,0-.59.7c0-.33-.82-.78-.67,0s0,.94-.64.75a2.12,2.12,0,0,0,.9,1.12c0,.56-.79.67-1.08.63s.48-.59.26-1.08a.57.57,0,0,0-.72-.33.54.54,0,0,0-.18.11c0-.56-1.49.6-.6.93,0,.34-.29,0-.52,0s.3.64.34.86l-.64-.67a5.09,5.09,0,0,0,0-1.35c0-.48-.89-.7-1-.26s.18,0,0,.23-.82-.56-.75-.75.6-.19.26-.78c.37,0,.45.3.75.33,0-.59-.3-.85,0-1.3a.82.82,0,0,1,.86-.37.58.58,0,0,0,.22.48c.19,0,.41-.56.56-.63-.37.59.74.74.52,0a.44.44,0,0,1,.6,0h0a1.15,1.15,0,0,0,.37,0c0-.45-.48-2.35-1-2.17h0l-.26.3c0,.26.33.56.29.9-.74,0-1,1.23-1.41.26h0L18.8,11,11.12,3.36c-.41-.19-.86-.6-.82,0a.72.72,0,0,1-.53-.71,2.62,2.62,0,0,1,.79,0L7.91,0,0,8.24l.52.49c.26-.19.49,0,.41.41l6.75,6.75a1.46,1.46,0,0,1,.68-.37,1.41,1.41,0,0,1-.38.67l2.91,2.91L0,30l7.76,7.76,3.36-3.36c-.19,0,0-.6.33-.33l3.73-3.73c-.37-.19-.86-.49-.33-.82a2,2,0,0,1-1.91-.71s.49-.19.49-.3a3.1,3.1,0,0,1,0-.86c-.52-.52-.9.67-.41.67a1.5,1.5,0,0,1-1.79.34c-.49-.23-.82-.34-1,.33-.49-.26,0-1-.56-1.49s.52-1,.71-1.34c0,.45,1.45.45,1.49.3s.22-1.23.67-.67,0,.29,0,.82c.9.7,2.35.41,3.1,1.26s0,.79,0,1.31a3.1,3.1,0,0,0,0,.86l3.24-3.25,4.29,4.63.26.22c.41.26.56,0,.9,0a.57.57,0,0,1,.26,0,.73.73,0,0,1-.45.75L25.78,34a1.63,1.63,0,0,1,.82,0,3.52,3.52,0,0,1,1-.56v.34a3.72,3.72,0,0,1-.59.78c-.23.37-.45,0-.64-.19l-.26.19h.19a2.13,2.13,0,0,1,2,1.72v.37l1.05,1,1.49-1.53-.26-.26a2.07,2.07,0,0,1,.82,0l.3-.3V35.4h0l5.52-5.52L32.38,25l-.3.41c-.34.26-1.38,0-.78-.41s.26,0,.41,0a.39.39,0,0,0,0-.26c0-.64-.34-.38-.75-.6s-.52-.6-.78-.89-1.05-.27-1.31-.71-.48-.6-.67-1A3.26,3.26,0,0,0,27,20.74c0,.26.78,1,0,1s0-.67-.3-.85-.38.56-.41.63-1.64-1.31-2.17-1.23l-.44-.41v-.19c0,.19.26.41.41.45,0-.63.48,0,.74.22s.64-.56.67-.63.27.22.41.22h0c.49,0,.27.56.41.82s0,0,.41,0a3.42,3.42,0,0,0,.94.19h.26l-1.68-1.68L37.15,8.47l-7.61-8L25,5S25.29,5,25.25,5.3ZM6.6,35h.67C7.8,35.32,6.83,35.47,6.6,35Zm6.16-5c0,.48-.6.75-.53,0Zm-.56-.22c-.23.48-.67,0-.82-.19s-.45.3-.56.41c-.45-.67.26-.75.56-.6s0,0,.18,0,.23.34.45.38Zm.89-13.51L14.21,16l-.67.64v-.3c-.34,0-.6.26-.78-.08ZM5.37,5.07c.93,0,.93-1.19,0-1.34.23-.45.86,0,1-.41s-.67,0-1,0c1.2-.78,1.16,1.38,1.94,0,0,0,.23.19,0,.34-.78-.41-.82,2.05-2,1.38Zm8,2.43c0,.22.29.33.26.59-.71.53-.41-1-.52-1.34.78.41-.3.08.07.71Zm-4.7,5c-.38,0-1.53-.75-1.09-1.27a1.15,1.15,0,0,0,.68.41c-.53.63.74.48.41,0s-.53-.26-.45-.67,0-.64-.22-.45c-.38-.78.7-.3.89,0s-.52,0-.37.33c.41-.29.82.45,1.45-.22a.41.41,0,0,0,.58.06l.06-.06c.48-.33,0-.52-.23-.82s.82-.37.82-.56-.78-.41-.74-.45a.64.64,0,0,1-.41.64c-.41.11-.34.59-.6.82-.93-1.08.93-1.27,1.42-1.83-.38-.41-1.64-.9-1.79,0l-.67-.78c.37,0,.74-.3,1.11,0s.79.85.79.18-.3-.44,0-.63a.83.83,0,0,1,1.12,0l.48.6c-.6,0-.78.22-.78.63a1.27,1.27,0,0,1,1,.67H11.9s-.22-.19-.37,0l-.41-.52v.3c.56.63.74,1,0,1.6.41.52.89.49,1.38.86-.34.41.63,0,.89.22s-.56,0-.6,0a4.92,4.92,0,0,0,0,.67c0,.12-.48-.52-.74-.33,0-.64-.45-.78-.93-.56s-.82,1.38-1.09.93c.49-.48,0-.86-.48-.56.19.19.56.75,0,.82a.63.63,0,0,0-.52.19.7.7,0,0,0-.6-.26Zm4.55,1V13.2a.32.32,0,0,1,.41,0s.33,0,.48.45C13.32,14,13.13,13.76,13.17,13.54Zm2.46.82-.3.26a3.16,3.16,0,0,1-.45-.37,1.93,1.93,0,0,1,.75.15Zm-1.05.71h0v.19h0s-.18-.15,0-.15Zm-2,0a4.37,4.37,0,0,0,0,1.53l.19.67-.49.52c0-1.15-.18-2.68.49-2.61Zm-1.64,3.28a.7.7,0,0,0,.41-.18.58.58,0,0,0-.45,0c0-.19.52-.53.3-.75-.93,1.12-.19,0-.93-.45.56-.71,1.42.67,1.71,1.08h0l-.71.68Zm9.51,9.74c.45,0,.6-.19,1,0,0,.74-1.27.86-1,.11Zm5.6,2.2c0,.37-.34.3-.26.74-.75,0-.49-.85-.49-1.3.6.07.34.6.75.67ZM28.2,29a1.21,1.21,0,0,0-.6.56c0-.68-.86-.3-1-1a1.5,1.5,0,0,1,1.57.52Zm-4.81-.49c-.41-.26-1.83-1.34-1.49-1.86v-.23C22.31,26.74,23.72,28.46,23.39,28.46Zm4.1-2.61c.71.63,1.49,0,2.16.86-.44,0-.52-.26-.82-.38s-.67.3-.89.45A7.63,7.63,0,0,1,25.51,28c0-.3.45-1.15.75-.67.34-.6-2.2-.86-.56-1.71.67-.34,1.53,1.26,2,.41Zm-5.33-1.64c0,.52-.34.56-.71.18l.26-.44ZM25,21a5.6,5.6,0,0,0,0,1.53c-.26,0-.41-.19-.56-.37s-.3,0-.67,0a1,1,0,0,1,1-.79l-.3-.44v-.19h0A1.07,1.07,0,0,0,25,21ZM26,17.27c.19.56,0,.49.52.75a1.49,1.49,0,0,0-.33.52L25.59,18c0-.56-.45-.93-1.05-1.08L24,16.41h.34c.33,0,.48.52.63,0s.86.86,1,1.2Zm2.5-4.92v.37c0-.52-1.16-.49-.78-1,.26.6.56.56.78,1Zm-.67-1.23C27.38,10,29.21,10.59,27.79,11.12ZM31.33,8c-.41-.42-.71-.34-.18-.9q0,.23.33,0c.3.37-.37.22,0,.56.11.07-.07.52-.07.67Zm1.87-.3c-.56-.19-.52-.64-.3-1,.56.63.56.86.3,1.34Zm-3-6.49c.23.48.75.37.94.89s-1.38-.18-.94-.56Zm-1.49,1c0,.29-.48,1-.63.82s.52-.26.3.63c-1.09.08-.94-1.42.33-1.23Zm0,1.9C29.28,5.6,27.94,4.29,28.72,4Z"/></svg>