<?xml version="1.0" encoding="utf-8"?>
<!-- Generator: Adobe Illustrator 22.1.0, SVG Export Plug-In . SVG Version: 6.00 Build 0)  -->
<svg version="1.1" id="Layer_1" xmlns="http://www.w3.org/2000/svg" xmlns:xlink="http://www.w3.org/1999/xlink" x="0px" y="0px"
	 viewBox="0 0 27.5 26.3" style="enable-background:new 0 0 27.5 26.3;" xml:space="preserve">
<style type="text/css">
	.st0{fill:#FFFFFF;}
</style>
<title>mute</title>
<path class="st0" d="M26.2,15.4c-0.1,0-0.2,0-0.3,0h-0.1v0.1c0.1,0,0.1,0.1,0.1,0.2h-0.2c0,0.1,0.1,0.1,0.2,0.2s-0.2,0.3,0,0.4
	C26,16.1,26,16.1,26,16l0,0l0,0c0,0,0,0-0.1,0s0.2,0,0.2,0s0,0,0,0l0,0c0.1-0.1,0-0.2,0.2-0.1c-0.1,0.1,0,0.2-0.1,0.2s-0.1,0-0.1,0
	c0,0,0,0.1,0,0.1c-0.2-0.1-0.1,0.1-0.3,0.1c0.1-0.2-0.1-0.2-0.1-0.4c-0.1,0-0.1,0-0.1,0.1c0.2,0.2,0,0.1-0.1,0
	c0.1-0.1,0.2-0.1,0-0.3c0-0.1-0.2-0.1-0.2-0.2s-0.1,0.1-0.1,0.2S25,15.9,25,16s0.1-0.1,0.2-0.1c0,0.1-0.1,0.1-0.1,0.1
	c0,0,0,0.1,0,0.1c0.1,0,0.1-0.1,0.1-0.2s0.4,0.4,0.2,0.5c0-0.2-0.2-0.2-0.4-0.2s-0.2-0.2-0.2-0.4s-0.2-0.2,0-0.3
	c-0.1,0-0.3,0-0.4,0.1s-0.2-0.1-0.3,0s0,0.2-0.2,0.2S24,16,23.9,15.9s0-0.4-0.2-0.5c0-0.2-0.1-0.5,0.2-0.4c0,0.2-0.2,0.4,0,0.5
	s0.1-0.2,0.3-0.2c0,0.1,0,0.2,0,0.3c0,0.1,0,0,0,0.2c0.3,0.1,0.2-0.4,0.2-0.4c0.2,0,0.3,0.1,0.5,0.1c0-0.1-0.1-0.1-0.2-0.2
	c0.1,0,0.2-0.2,0-0.2s-0.2,0-0.2-0.2c-0.1,0-0.2,0.1-0.3,0.2c-0.1,0-0.2-0.2-0.2-0.3s0.2,0.1,0.3,0.1c0.1,0,0.1-0.1,0.1-0.2
	c0,0,0,0,0,0c0.1,0-0.2-0.4-0.2-0.2c-0.1,0,0-0.1,0-0.1s-0.2,0.1-0.2,0.1l0.2-0.2c0.1,0,0.2,0,0.4,0c0.1,0,0.2-0.2,0.1-0.3
	s0,0.1-0.1,0s0.1-0.2,0.2-0.2s0,0.2,0.2,0.1c0,0.1-0.1,0.1-0.1,0.2c0.2,0,0.2-0.1,0.4,0c0.1,0,0.1,0.1,0.1,0.2c-0.1,0-0.1,0-0.1,0.1
	c0,0.1,0.1,0.1,0.2,0.1c-0.2-0.1-0.2,0.2,0,0.1c0,0,0,0.1,0,0.2l0,0c0,0,0,0.1,0,0.1c0.1,0,0.6-0.1,0.6-0.3l0,0l-0.1-0.1
	c-0.1,0-0.1,0.1-0.2,0.1c0-0.2-0.3-0.3-0.1-0.4l0,0l-0.7-0.7l2.1-2.1c0-0.1,0.2-0.2,0-0.2c0-0.1,0.1-0.1,0.2-0.1c0,0.1,0,0.1,0,0.2
	l0.7-0.7l-2.2-2.1l-0.1,0.1c0,0.1,0,0.1-0.1,0.1l-1.8,1.8c0,0.1,0.1,0.1,0.1,0.2c-0.1,0-0.1-0.1-0.2-0.1l-0.8,0.8l-2.9-2.9l-2.1,2.1
	l0.9,0.9c0-0.1,0.2,0,0.1,0.1l1,1c0-0.1,0.1-0.2,0.2-0.1c0-0.2,0-0.4,0.2-0.5c0,0,0,0.1,0.1,0.1c0.1,0,0.2,0,0.2,0
	c0.1-0.1-0.2-0.2-0.2-0.1c-0.1-0.1-0.2-0.3-0.1-0.5c0.1-0.1,0.1-0.2-0.1-0.3c0.1-0.1,0.3,0,0.4-0.1s0.3,0.1,0.4,0.2
	c-0.1,0-0.1,0.4-0.1,0.4s0.3,0.1,0.2,0.2s-0.1,0-0.2,0c-0.2,0.2-0.1,0.6-0.3,0.8s-0.2,0-0.4,0c-0.1,0-0.2,0-0.2,0l0.9,0.9l-1.2,1.2
	l-0.1,0.1c-0.1,0.1,0,0.1,0,0.2c0,0,0,0,0,0.1c-0.1,0-0.2-0.1-0.2-0.1l-0.4,0.4c0,0.1,0,0.1,0,0.2c0.1,0.1,0.1,0.2,0.1,0.3
	c0,0-0.1,0-0.1,0c-0.1,0-0.1-0.1-0.2-0.2c-0.1-0.1,0-0.1,0-0.2l0-0.1v0.1c0,0.2-0.2,0.5-0.5,0.5h-0.1l-0.3,0.3l0.4,0.4
	c0,0,0,0,0.1-0.1c0,0.1,0,0.1,0,0.2l0.1,0.1c0,0,0,0,0.1,0l0,0l1.5,1.5l1.3-1.3l-0.1-0.1c-0.1-0.1,0-0.4,0.1-0.2s0,0.1,0,0.1
	c0,0,0,0,0.1,0c0.2,0,0.1-0.1,0.2-0.2s0.2-0.1,0.2-0.2s0.1-0.3,0.2-0.4s0.2-0.1,0.3-0.2c0.1-0.1,0.2-0.2,0.2-0.3
	c-0.1,0-0.3,0.2-0.3,0s0.2,0,0.2-0.1s-0.1-0.1-0.2-0.1s0.4-0.4,0.3-0.6l0.1-0.1h0c0,0-0.1,0.1-0.1,0.1c0.2,0,0,0.1-0.1,0.2
	s0.1,0.2,0.2,0.2s-0.1,0.1-0.1,0.1l0,0c0,0.1-0.1,0.1-0.2,0.1s0,0,0,0.1c0,0.1,0,0.2,0,0.2v0.1l0.5-0.4l2.9,2.9l2.1-2L26.2,15.4
	C26.3,15.3,26.3,15.4,26.2,15.4z M18.3,10.4c0,0.1,0,0.1,0,0.2C18.2,10.7,18.1,10.4,18.3,10.4z M19.6,12c-0.1,0-0.2-0.2,0-0.1V12z
	 M19.6,11.9c-0.1-0.1,0-0.2,0-0.2s-0.1-0.1-0.1-0.1c0.2-0.1,0.2,0.1,0.2,0.1s0,0,0,0.1S19.7,11.7,19.6,11.9L19.6,11.9z M23.3,12.1
	l0.1,0.3l-0.2-0.2h0.1C23.3,12.1,23.2,12.1,23.3,12.1L23.3,12.1z M26.3,10c0,0.2,0.3,0.2,0.4,0c0.1,0.1,0,0.2,0.1,0.3s0-0.2,0-0.3
	c0.2,0.3-0.4,0.3,0,0.5c0,0,0,0.1-0.1,0C26.8,10.3,26.1,10.3,26.3,10L26.3,10z M25.6,12.2c-0.1,0-0.1,0.1-0.2,0.1
	c-0.1-0.2,0.3-0.1,0.4-0.1C25.7,12.3,25.8,12,25.6,12.2L25.6,12.2z M24.3,10.9c0-0.1,0.2-0.4,0.3-0.3c-0.1,0-0.1,0.1-0.1,0.2
	c-0.2-0.1-0.1,0.2,0,0.1s0.1-0.1,0.2-0.1s0.2,0,0.1-0.1c0.2-0.1,0.1,0.2,0,0.2s0-0.1-0.1-0.1c0.1,0.1-0.1,0.2,0.1,0.4
	c0,0-0.1,0.1,0,0.2c0,0,0,0,0,0c0.1,0.1,0.1,0,0.2-0.1s0.1,0.2,0.1,0.2s0.1-0.2,0.1-0.2s-0.1,0-0.2-0.1s-0.2-0.1-0.2-0.2
	c0.3-0.2,0.3,0.2,0.5,0.4c0.1-0.1,0.2-0.4,0-0.5l0.2-0.2c0,0.1,0.1,0.2,0,0.3s-0.2,0.2,0,0.2s0.1-0.1,0.2,0c0.1,0.1,0.1,0.2,0,0.3
	l-0.2,0.1c0-0.2-0.1-0.2-0.2-0.2c0,0.1-0.1,0.2-0.2,0.3v-0.1c0,0,0-0.1,0-0.1l0.1-0.1h-0.1c-0.2,0.1-0.3,0.2-0.4,0
	c-0.1,0.1-0.1,0.2-0.2,0.4c-0.1-0.1,0,0.2-0.1,0.2s0-0.1,0-0.2s-0.1,0-0.2,0s0.1-0.1,0.1-0.2c0.2,0,0.2-0.1,0.1-0.2
	s-0.4-0.2-0.2-0.3c0.1,0.1,0.2,0,0.1-0.1c0,0.1-0.2,0.1-0.2,0c0-0.1,0-0.1,0-0.1C24.3,11,24.3,10.9,24.3,10.9L24.3,10.9z M24,12.1
	C24,12.1,24,12.1,24,12.1c0.1,0,0.1,0.1,0.1,0.1c0,0,0,0.1-0.1,0.1C23.9,12.1,23.9,12.1,24,12.1z M23.8,12.8L23.8,12.8
	c0-0.1,0-0.2,0-0.2C23.8,12.6,23.8,12.7,23.8,12.8L23.8,12.8z M23.6,12.5L23.6,12.5L23.6,12.5L23.6,12.5
	C23.5,12.5,23.6,12.4,23.6,12.5L23.6,12.5z M23.6,11.9c-0.1,0-0.3,0-0.4,0L23,12l-0.1-0.1C23.2,11.9,23.6,11.8,23.6,11.9L23.6,11.9z
	 M22.7,11.5c0,0,0,0.1,0,0.1C22.8,11.6,22.8,11.5,22.7,11.5c0.1,0,0.2,0.1,0.2,0.1c-0.3-0.2,0-0.1,0.1-0.2c0.2,0.1-0.2,0.4-0.3,0.5
	l0,0l-0.2-0.2L22.7,11.5z M20.1,14.1c0,0.1,0,0.2,0,0.3C19.9,14.3,19.9,14,20.1,14.1L20.1,14.1z M19.5,15.6c-0.1,0-0.1-0.1-0.2-0.1
	c0-0.2,0.2-0.1,0.4-0.1C19.6,15.5,19.5,15.4,19.5,15.6L19.5,15.6z M19.9,16.1c0-0.1-0.1-0.1-0.1-0.2c0.2,0,0.1-0.2,0.3-0.3
	C20,15.9,20,16,19.9,16.1L19.9,16.1z M20,14.9c0.1-0.1,0.4-0.5,0.5-0.4h0.1C20.5,14.6,20,14.9,20,14.9z M20.7,16
	c-0.2,0.2,0,0.4-0.2,0.6c0-0.1,0.1-0.1,0.1-0.2s-0.1-0.2-0.1-0.2c-0.1-0.2-0.3-0.4-0.3-0.6c0.1,0,0.3,0.1,0.2,0.2
	c0.2,0.1,0.2-0.6,0.5-0.1C20.9,15.6,20.4,15.9,20.7,16L20.7,16z M21.1,14.5c-0.1,0-0.1-0.1,0-0.2l0.1,0.1L21.1,14.5z M22,15.3
	c-0.1,0-0.3,0-0.4,0c0-0.1,0-0.1,0.1-0.1s0-0.1,0-0.2c0.1,0,0.2,0.1,0.2,0.3l0.1-0.1h0l0,0C22,15.2,22,15.2,22,15.3z M23,15.5
	c-0.1,0.1-0.1,0-0.2,0.1c0,0-0.1-0.1-0.1-0.1l0.1-0.1c0.1,0,0.2-0.1,0.3-0.3l0.1-0.1c0,0,0,0,0,0.1s-0.1,0.1,0,0.2S23,15.5,23,15.5
	L23,15.5z M24.3,16.2c0,0-0.1,0-0.1,0c0.1,0,0.1-0.3,0.3-0.2C24.3,16.1,24.3,16.1,24.3,16.2L24.3,16.2z M24.7,16
	C25,15.9,24.8,16.4,24.7,16z M25.5,17c0.1-0.1,0.1-0.2,0.2,0c0,0,0,0,0,0.1C25.6,17.1,25.7,16.9,25.5,17C25.6,17,25.5,17,25.5,17
	L25.5,17z M25.6,17.5c0-0.1,0.2-0.1,0.3-0.1C25.7,17.5,25.6,17.5,25.6,17.5L25.6,17.5z M27.3,16.7c-0.1,0.1-0.1,0.2-0.2,0.2
	S27.1,16.6,27.3,16.7L27.3,16.7z M27.1,16.3c-0.1,0-0.3-0.1-0.2-0.2s0.1,0.1-0.2,0.1C26.6,15.9,27,15.9,27.1,16.3L27.1,16.3z
	 M26.6,16.3C26.1,16.4,26.5,16.1,26.6,16.3z"/>
<path class="st0" d="M14.5,2.8C14.5,2.8,14.5,2.8,14.5,2.8V0L9.1,4.5v0.1H9.1L7.8,5.6c0,0.1,0,0.1,0,0.2c0,0.1-0.1,0.2-0.2,0.3H7.4
	c0,0,0-0.1,0-0.2L7.2,6.1H4c-0.2,0.1-0.5,0.1-0.7,0H0v2.1h0.2c0,0.1-0.1,0.2-0.2,0.3v4.1c0,0,0,0,0.1-0.1c0,0.4,0.2,0.5,0.5,0.5
	c0,0.7,0.1,1.3,0.3,1.9c-0.1,0-0.1,0-0.2,0c0,0.2,0.5,0.6,0.2,0.8c-0.2-0.1-0.4-0.4-0.5-0.7C0.4,14.8,0.2,14.4,0,14v2.7
	c0.1,0.1,0.2,0.2,0.2,0.3C0.1,17,0,17,0,17.1v2L0.1,19c0.1,0.2,0.1,0.4,0,0.6c0.1,0.1,0.3,0,0.4-0.2c0.1,0.3-0.2,0.5-0.5,0.4v0.6
	c0,0.1,0,0.1,0.1,0.2h4.1c0-0.1,0-0.1,0-0.2c0.1,0,0.2,0.1,0.2,0.2h1.2c0,0,0.1,0,0.2,0h0.1h1c0-0.1,0-0.1-0.1-0.1H6.6
	c0.3,0,0.9-0.7,1.1-0.1c-0.1-0.2-0.2-0.2-0.2,0s0.3,0,0.2,0.3h0.1L8,20.8v-0.1c0,0,0.1,0,0.1,0c-0.1,0-0.1-0.1-0.1-0.1h0.5
	c0,0.1-0.1,0.1-0.1,0.1c0.2,0.1,0.4,0.3,0.4,0.5l2.9,2.6l0,0c0.2,0.1,0.4,0.3,0.4-0.2c0.1,0,0.1,0.2,0,0.5l1.8,1.6
	c0.1-0.3,0.3-1,0.6-0.6c-0.3,0.1,0.1,0.3,0,0.4s-0.3,0-0.3,0.2H14l0.5,0.5v-0.1c0-0.1,0-0.2-0.1-0.3s0.1,0,0.1,0v-1l0,0
	c0,0.5-0.5-0.2-0.3-0.4c0.1,0.1,0.2,0.2,0.3,0.2v-0.1c0-0.1-0.1-0.2-0.2-0.2c0.1-0.2,0.2-0.2,0.2-0.1v-6c-0.1-0.1-0.1-0.3,0-0.4
	c0,0,0-0.1,0-0.1v-4.5v-1.5c-0.1-0.2-0.2-0.4-0.3-0.6c0.1,0,0.3,0,0.3-0.1V8.7c-0.1,0-0.2-0.1-0.2-0.1s0.1-0.3,0.1-0.4
	c-0.2,0.2-0.1-0.3-0.3-0.1c0,0.1,0.1,0.1,0.2,0.3c-0.1,0.2-0.2,0.4-0.2,0.6c0.4-0.1,0.4,0.1,0.4,0.6c-0.2,0.1-0.5,0.2-0.4-0.2
	c0-0.1,0-0.3-0.1-0.3c-0.1,0-0.1-0.1-0.2-0.1c0,0.2-0.1,0.4-0.1,0.5c0,0.1,0,0.2-0.1,0.3c-0.4-0.1,0-0.7,0.1-0.9
	c0-0.1-0.1-0.2-0.2-0.2c-0.2-0.1-0.1,0.3-0.3,0c-0.1-0.2-0.2-0.3-0.2-0.5c0-0.1,0-0.2,0-0.3c0-0.3,0.1-0.1,0.1-0.3S13.2,7.2,13.3,7
	c0,0.1,0,0.3,0.1,0.3s0.1-0.2,0.2-0.2s0.1-0.1,0.1-0.2s-0.1,0-0.1,0.1s-0.2,0-0.2-0.2c0.1,0,0.2-0.1,0.3,0.1c0-0.1,0-0.2,0-0.3
	c-0.2,0.1-0.5,0.2-0.6-0.2c0.2,0,0.1-0.2,0.3-0.1s0.2,0.2,0.4,0.2c-0.1-0.1-0.1-0.2,0-0.2c0.1,0.1,0.1,0.2,0.2,0.3H14
	c0,0.2-0.2,0.2-0.2,0.4c0.1-0.1,0.1,0.3,0.3,0.4c0,0.2-0.2,0.2-0.1,0.5c0.1,0,0.2-0.1,0.2-0.2c0,0.2,0.2,0.3,0.2,0
	c-0.3,0.1-0.3-0.6,0-0.4c0.1,0.1,0.1,0.2,0.1,0.3V4.9c-0.2,0.1-0.5,0.1-0.3-0.2c0-0.1,0-0.3-0.1-0.3c-0.1-0.1-0.1-0.1-0.2-0.1
	c0-0.1-0.1-0.2-0.2-0.2c-0.2-0.1-0.1,0.3-0.3,0.1c-0.1-0.2-0.2-0.3-0.2-0.5c0-0.1,0-0.2,0-0.3c0-0.3,0.1-0.1,0.1-0.3
	s-0.1-0.4,0.1-0.6c0,0.1,0,0.3,0.1,0.3s0.1-0.2,0.2-0.2s0-0.3,0.1-0.5c-0.2,0.1-0.5,0.2-0.6-0.2c0.2,0,0.1-0.2,0.3-0.1l0.4,0.2
	c-0.1-0.1-0.1-0.2,0-0.2C14,1.8,14.1,1.9,14.1,2h0.1c0,0.2-0.2,0.2-0.2,0.4c0.1,0,0.1,0.3,0.3,0.4c0,0.2-0.2,0.2-0.1,0.5
	c0.1,0,0.2-0.1,0.2-0.2c0,0.2,0.2,0.3,0.2,0C14.2,3.2,14.2,2.5,14.5,2.8z M2.8,11.8c-0.1,0.1-0.3,0.1-0.4,0.1c0,0,0,0-0.1-0.1
	C2.4,11.6,2.6,11.6,2.8,11.8C2.7,11.7,2.7,11.7,2.8,11.8L2.8,11.8z M1.2,9.8c-0.3-0.3,0-0.6,0-0.9C1.3,9.3,1.6,9.2,1.2,9.8L1.2,9.8z
	 M1.4,8.4C1.2,8.5,1.1,8.6,1,8.4C1.1,8,1.2,8,1.4,8.4L1.4,8.4z M0.8,7.6c0-0.2,0.3-0.3,0.3,0C1,8.1,0.7,7.9,0.8,7.6z M0.1,10.2
	c0.3,0,0.2,0.4,0,0.5C0,10.5,0,10.4,0.1,10.2z M0.2,10.7c-0.1-0.3,0.4-0.1,0.3-0.4C1,10.2,0.3,11.3,0.2,10.7z M2.7,16.6
	c-0.5,0,0.2-0.6-0.3-0.6c0-0.1,0-0.2,0-0.3c0.4,0.1,0.4,0.6,0.8,0.7C3,17,2.7,15.9,2.7,16.6z M12.9,5.5l-0.1-0.1
	C12.8,5.1,13,5.2,12.9,5.5z M12.8,13.4c0.2-0.1,0.1,0,0.1,0.3C12.8,13.7,12.8,13.6,12.8,13.4L12.8,13.4z M12.5,14.6
	c0-0.1,0.2-0.3,0.3-0.2C13.1,14.7,12.2,15.6,12.5,14.6z M12.1,16.2c0,0,0.1-0.1,0.1-0.2c0,0,0-0.1-0.1-0.1c0-0.1,0.1-0.1,0.2-0.1
	c0.1,0.1,0.4,0.3,0.2,0.4l-0.2,0.2c0-0.1,0-0.1,0-0.2L12.1,16.2z M11.5,16.4c-0.1-0.1-0.1-0.2-0.2-0.4c-0.1,0.1,0,0.2,0.1,0.4
	c-0.1,0-0.1,0-0.2,0c-0.1,0-0.2,0-0.2-0.1c0.2-0.4,0.3-0.9,0.2-1.3l0,0c0,0,0,0,0-0.1c0.2,0.1,0.5,0.1,0.3-0.3h0.1
	c0-0.1-0.1-0.2,0-0.3s0.2,0.2,0.1,0.3c0.2,0,0.4,0,0.2-0.2c-0.2-0.5-0.1-0.1,0.2-0.3c0,0.3,0,0.7-0.1,1c-0.9-0.6-0.2,0-0.6,0.4
	c0.1-0.1,0.6-0.4,0.7-0.3s0.1,0.4,0.3,0.3c0,0.2-0.1,0.2-0.2,0.1l0.1-0.1c-0.2-0.1-0.1-0.3-0.3-0.4c0,0.1-0.1,0.2-0.1,0.2
	c0,0-0.1,0.1-0.1,0.1l0,0C11.9,15.9,11.6,16.1,11.5,16.4z M11.9,16.4L11.9,16.4L11.9,16.4L11.9,16.4L11.9,16.4z M11.6,17
	C11.6,17,11.6,17,11.6,17c0-0.1,0-0.2,0.1-0.2C11.7,16.9,11.7,17,11.6,17L11.6,17z M11.4,18c-0.1,0-0.1,0-0.2,0c0-0.1,0-0.1,0.1-0.2
	C11.3,17.9,11.4,18,11.4,18L11.4,18z M10.7,14.7c0.1,0,0.2,0.1,0.3,0.1c0.1-0.5-0.6-0.8-0.4-0.2c-0.2,0.2-0.4-0.7-0.1-0.6
	c0.4-0.1,0.3,0.4,0.8,0.1c0,0.2,0,0.4,0,0.7c-0.1,0-0.2,0-0.2,0.1c-0.1,0-0.2,0-0.3,0.1C10.7,14.8,10.7,14.8,10.7,14.7L10.7,14.7z
	 M10.7,16.4c0,0-0.1,0.1-0.1,0.1c0-0.1,0-0.1,0-0.2C10.6,16.3,10.6,16.5,10.7,16.4L10.7,16.4z M10.3,16.9c0,0.1-0.1,0.2-0.1,0.4
	c-0.1-0.2-0.1-0.4,0.1-0.5l0,0C10.3,16.8,10.3,16.9,10.3,16.9L10.3,16.9z M11.3,9.8c0-0.6,0.5-0.1,0.6-0.1c-0.1,0.5-0.3,0.9-0.6,1.3
	L11,10.5c0.3,0,0.6-0.1,0.6-0.6C11.6,9.6,11.4,9.9,11.3,9.8L11.3,9.8z M11.6,11.3c-0.2-0.4-0.2-0.4,0.1-0.7
	C11.7,11,11.9,11.1,11.6,11.3L11.6,11.3z M11.1,11.4c0.3,0.3-0.1,0.5-0.2,0.7l-0.1-0.3C11,11.9,11,11.4,11.1,11.4L11.1,11.4z
	 M12,16.1v0.1l0,0C12,16.2,12,16.2,12,16.1z M11.9,16.4c0.1,0,0.2,0,0.3,0c-0.1,0.1-0.2,0.1-0.3,0.2C11.9,16.5,11.9,16.5,11.9,16.4
	L11.9,16.4z M12.4,17.4c0.4-0.1,0.2,0.2-0.1,0.4C12.3,17.7,12.3,17.5,12.4,17.4L12.4,17.4z M12.6,3.3c-0.1,0.2-0.2,0.2-0.3,0.1
	C12.4,3.2,12.5,3.1,12.6,3.3z M12.8,8c-0.3-0.4-0.8,0.7-0.9-0.2C12.4,7.9,12.7,7.2,12.8,8z M11.1,7.4c0.3-0.1,0.1,0.5,0.3,0.7
	C11.8,8.2,12,8.5,12,8.8c0,0,0.1,0,0.1,0.1s0,0-0.1,0c0,0.2,0,0.4-0.1,0.6c0-0.1-0.1-0.2-0.1-0.3c-0.1,0.1-0.1,0.1-0.2-0.1
	s0-0.1,0-0.2s0.1,0,0.1,0c0-0.2-0.1-0.4-0.3-0.6c-0.3-0.3-0.7-0.6-0.9-1C10.7,7.2,11.3,7.7,11.1,7.4L11.1,7.4z M11.1,8.4
	c0.2,0.8-0.7,1.3-0.9,1.9C9.9,9.9,10.8,8.7,11.1,8.4L11.1,8.4z M10.1,11.4c0.2,0.1,0.1,0.9-0.2,0.8c0.2-0.4,0.1-0.3-0.1-0.5
	C9.9,11.7,10,11.4,10.1,11.4L10.1,11.4z M10,15.2c0.3-0.2,0-0.4,0.4-0.3c0,0.1,0,0.1,0,0.2c-0.1,0-0.1,0-0.2-0.1
	c0,0.1,0,0.1-0.1,0.2l-0.3,0.2C9.7,15.3,9.8,15.2,10,15.2L10,15.2z M9.7,11.5c0,0.1,0.1,0.2,0.1,0.3c0,0.1,0.1,0.7-0.1,0.7
	c0-0.1,0-0.1,0-0.2L9.7,11.5z M9.8,16.1c-0.2,0-0.4,0.1-0.2,0.4c-0.2,0-0.4,0-0.6-0.1c0.1-0.2,0.5-0.4,0.4-0.5h0.2L9.8,16.1z
	 M8.3,15.5c0.2-0.3,0.4-0.4,0.6-0.6c0.1,0.3,0.3,0.6,0.6,0.9c0,0-0.1,0.1-0.1,0.1l0,0C9.4,16,9.1,16,9.1,16l0,0
	C8.7,15.9,8.5,15.4,8.3,15.5L8.3,15.5z M8.9,16.4L8.9,16.4c-0.1,0.1-0.2,0.1-0.4,0.1c-0.2-0.1-0.3-0.2-0.3-0.4
	C8.5,16.2,8.7,16.2,8.9,16.4L8.9,16.4z M8.4,14.9c0-0.1,0.1-0.2,0.1-0.3C9,14,8.6,15.6,8.4,14.9L8.4,14.9z M9.4,12.8
	c-0.1,0.3-0.3,0.3-0.5,0.1C9,12.9,9.1,12.5,9.4,12.8L9.4,12.8z M9.3,10.5C9.1,9.6,9.8,10.1,9.3,10.5z M9.1,8.1
	c0.1-0.2,0.3-0.3,0.4-0.4c-0.1,0.5-0.4,0.6-0.6,1c0-0.1,0-0.1,0-0.2C9.1,8.5,9,8.3,9.1,8.1z M8.4,6.8c0.1-0.1,0.2,0.1,0.4-0.1
	c0,0.2,0,0.4,0.1,0.7C8.8,7,8.1,7.3,8.4,6.8z M8.4,9.2c0.2,0.1-0.3,0.7-0.4,0.4L8.4,9.2z M7.3,11.1c0-0.2,0-0.3,0.1-0.5
	c0.1,0,0.1,0.2,0.1,0.3c0.1,0,0.1,0,0.2,0.1L7.7,11c-0.1,0.4-0.3,0.5-0.5,0.4C7.2,11.3,7.2,11.2,7.3,11.1z M6.6,16
	c-0.3,0-0.4-0.6-0.7-0.8C6.2,15.1,6.4,15.7,6.6,16z M5.8,13.9c-0.1-0.2,0.1-0.4,0.2-0.6S5.7,13.1,5.6,13C6,12.6,6.1,13.6,5.8,13.9z
	 M5.7,8.4v0.3C5.3,8.8,5.5,8.6,5.7,8.4z M4.1,16.7c-0.1,0-0.2-0.1-0.2-0.2S4.2,16.4,4.1,16.7z M4.2,11.5c0-0.3,0.3-0.3,0.3-0.1
	S4.3,11.6,4.2,11.5z M4.6,10.8c0.3,0.1,0.1,0.4,0.3,0.6C4.8,11.7,4.4,11.1,4.6,10.8z M5.3,12.5c-0.1,0.1-0.3,0-0.3-0.1
	s0.3-0.3,0.2-0.5c0.1,0.1,0.3,0.2,0.4,0.4c-0.1,0-0.5-0.1-0.5,0.1C5.2,12.4,5.2,12.5,5.3,12.5z M5.7,20.1c0-0.2,0-0.3,0.1-0.3
	c-0.1,0-0.2,0-0.3,0.1c0-0.2,0.5-0.4,0.6-0.4c0.3-0.1,0.1,0.3-0.1,0.4l0,0c0.2,0,0.4,0.2,0.3,0.3S5.8,20.3,5.7,20.1z M6,17.4
	C6,17.2,6.1,17,6.2,17C6.2,17.2,6,17.8,6,17.4z M6.2,16.8C6,16.9,6,17.1,5.9,17.2c-0.1-0.5,0.3-1.1,0.8-1.2c0,0,0.1,0,0.1,0
	C6.7,16.3,6.4,16.6,6.2,16.8L6.2,16.8z M6.9,19.4c0,0-0.3-0.3-0.1-0.4c0.3-0.1,0.5,0.1,0.6,0.3C7.1,19.4,7.2,19.8,6.9,19.4L6.9,19.4
	z M7.5,17.6c-0.1,0-0.1-0.1-0.1-0.2c0.1-0.4,0.3-0.3,0.4,0l-0.1,0.2C7.6,17.3,7.5,17.3,7.5,17.6L7.5,17.6z M7.6,18.1
	c0.1-0.2,0.1-0.3,0.1-0.5l0.2,0C7.9,17.8,7.8,18,7.6,18.1L7.6,18.1z M8.8,20.8L8.9,21C8.8,20.9,8.8,20.9,8.8,20.8L8.8,20.8z M9,19.3
	c-0.2,0.1-0.2,0.4-0.1,0.6c-0.1,0.1-0.3,0-0.4-0.1c0,0,0-0.1,0-0.1C8.2,19,8,18.3,7.9,17.6c0.1-0.1,0.2-0.1,0.4-0.2
	c0.3-0.1,0.2-0.2,0.3-0.3c0,0,0.1-0.1,0.2-0.1l0.1,0.1c-0.1,0.3-0.2,0.5-0.3,0.5c0.1,0.2,0.5,0.1,0.6,0.1c-0.1-0.1-0.1-0.2-0.2-0.4
	c0.2,0.3,0.4,0.7,0.7,1c0.1,0,0.1-0.3,0.1-0.4c0-0.3,0.1,0,0.3-0.1h0.1c-0.1,0.3-0.1,0.7-0.1,1c-0.1-0.1-0.2-0.1-0.1,0.2
	c-0.2,0-0.2-0.4-0.2-0.6c-0.4,0.2,0.3,0.8,0.3,0.9c0,0.6,0.4,0,0.5,0.3c0.1,0.6-0.9-0.4-1-0.5S9.2,19.2,9,19.3z M9.8,19.8
	c0,0,0.1,0.1,0.1,0.1C9.9,20.5,9.4,20.3,9.8,19.8L9.8,19.8z M9.9,22.2c0-0.2,0-0.4-0.1-0.6c0.2,0,0.1,0.2,0.2,0.4L9.9,22.2z
	 M10,20.9c0,0.1,0.1,0.1,0.2,0C10.5,21.2,9.5,21.5,10,20.9L10,20.9z M10.5,21.1c-0.3,0.1-0.2-0.1-0.2-0.4c0.2,0,0.1-0.2,0.1-0.4
	s0.2-0.2,0.2,0.1c-0.1,0.8,0.1,0.4,0.5,0.7C11.1,21.3,10.7,21.1,10.5,21.1L10.5,21.1z M12,19.9c0-0.1,0-0.2,0-0.3
	c-0.1,0-0.2-0.1-0.2-0.2c-0.2-0.2-0.5-0.4-0.6-0.1c-0.1,0.3,0,0.6,0.2,0.8l0.2-0.2c-0.1-0.1-0.1-0.2-0.1-0.2c0-0.2,0.2-0.2,0.3,0.1
	l-0.1,0.2c0.1,0.1,0.1,0.2,0,0.3c-0.1,0-0.1,0-0.2-0.1l-0.2,0.3c0,0,0.1,0.1,0.1,0.1c0,0-0.1-0.1-0.1-0.1l-0.1,0.2
	c0-0.2-0.1-0.3-0.3-0.2c0,0.1,0,0.2,0,0.2c0,0,0,0,0,0c-0.1-0.2,0-0.8,0.1-0.7s0,0.3,0.2,0.4l0.2,0.1l0,0c0,0-0.1,0-0.1,0
	c-0.1-0.6-0.5-0.6-0.8-1l0,0l-0.1-0.1c0,0,0,0,0-0.1l0,0c0,0,0-0.1,0-0.1l-0.1-0.1c0.1-0.5,0.1-1,0.2-1.6c0,0.2,0,0.4,0,0.6
	c0,0.3,0.2,0.1,0.4,0s0,0.1,0,0.1s0.3,0.1,0.4,0.2s0,0.3,0.1,0.4c0.2,0.1,0.4,0.3,0.6,0.5l0,0c0.1,0.1,0.1,0.2,0.2,0.2
	c0.1-0.1,0.2-0.1,0.3-0.1c0.1,0,0.1,0.1,0.1,0.2c-0.1,0.1-0.1-0.1-0.2,0c0,0,0,0.1-0.1,0.1c0.2,0.1,0.2,0.9,0.1,0.7S12,20.1,12,19.9
	z M12.4,21.9c0.3,0.3,0.7,0.4,1,0.7C13.1,22.8,12.1,22.5,12.4,21.9L12.4,21.9z M12.8,20.3c-0.4,0-0.1-0.7,0.1-0.5
	C12.8,20,12.9,20.1,12.8,20.3L12.8,20.3z M14,16.8c0-0.2,0-0.5-0.1-0.6c0.3,0,0.3,0.2,0.3,0.5L14,16.8z M14,13.1
	c0.4,0,0.1,1.1,0,1.1c-0.1-0.4-0.2-0.8-0.2-1.1L14,13.1z M13.7,9.9c0.1,0.2,0.1,0.4-0.1,0.2S13.7,9.9,13.7,9.9L13.7,9.9z M13.4,11
	c0-0.1,0.1-0.3,0.2-0.2l-0.1,0.1c-0.1,0.1-0.1,0.4-0.2,0.1C13.3,10.9,13.4,11,13.4,11z M14,16.8c-0.2,0.3-1.1,1.8-1.4,1.4
	c-0.1-0.2-0.1-0.4,0.1-0.6c0,0.1,0.1,0.2,0.1,0.3C13.2,17.7,13.5,17,14,16.8z"/>
</svg>
