<?xml version="1.0" encoding="utf-8"?>
<!-- Generator: Adobe Illustrator 22.1.0, SVG Export Plug-In . SVG Version: 6.00 Build 0)  -->
<svg version="1.1" id="Layer_1" xmlns="http://www.w3.org/2000/svg" xmlns:xlink="http://www.w3.org/1999/xlink" x="0px" y="0px"
	 viewBox="0 0 18 26.7" style="enable-background:new 0 0 18 26.7;" xml:space="preserve">
<style type="text/css">
	.st0{fill:#FFFFFF;}
</style>
<title>pauseGOT</title>
<path class="st0" d="M5.9,13.2c0.3-0.1,0.7-0.2,1-0.2L7,13V7.2c-0.2,0-0.3,0-0.5-0.1C6.7,7,6.8,6.9,7,6.9V0.8C6.8,0.7,6.8,0.5,7,0.5
	V0H0v2.4C0.1,2.3,0.2,2.1,0.3,2c0.2,0.1,0.2,0.4,0.1,0.6C0.1,2.3,0.1,2.6,0,2.9v7.8c0.1,0.1,0.1,0,0.1,0.2H0v1.8
	c0.2,0,0.4,0.2,0.6,0.2c0,0.2,0.1,0.3,0.1,0.5c-0.4,0-0.6-0.3-0.7-0.6v5.5c0.1,0,0.1,0,0.2-0.1c0.2-0.1,0.3-0.3,0.4-0.4
	c0.1-0.1,0.2-0.2,0.2-0.2c0-0.2-0.4-0.3-0.2-0.5l0,0c0.1-0.1,0.2-0.1,0.1-0.3c0.2,0,0.4,0,0.6,0c0-0.2-0.1-0.7,0.2-0.5
	c0.1-0.2-0.3-0.9,0.2-0.6c0,0.5,0.1,0.9,0.1,1.4c0.2-0.2,0.5-0.3,0.8-0.1c-0.1,0.2-0.3,0-0.3,0.3s0,0.3-0.1,0.4
	c-0.2-0.2-0.5-0.4-0.8-0.6c0.2-0.2,0.1-0.4,0.2-0.6c-0.4-0.1-0.4,1.4-0.5,1.6c-0.1,0-0.5-0.2-0.5-0.1s0.3,0.3,0.2,0.5
	c-0.4,0.4-0.4-0.4-0.5-0.5c-0.1,0.3-0.2,0.6-0.1,0.9c0.1,0.3-0.1,0.5,0.2,0.8s-0.3,0.5-0.3,0.9c0.1,0.2,0.1,0.5,0.1,0.8
	c-0.1,0.3-0.4,0.4-0.1,0.6c0.1,0,0.1,0,0.2,0c0.1,0,0-0.2,0.1-0.2c0.4-0.1,0.1,0.5-0.2,0.5c-0.1,0-0.2,0-0.3,0v4.4h5l0,0
	c0,0,0.2,0,0.2,0h0.3c0-0.1,0.1-0.2,0.2-0.2c0,0.1,0,0.2,0,0.2H7v-0.9l-0.1-0.2C6.5,25,6.6,24.3,7,23.9v-0.2c-0.1,0-0.1,0-0.2,0
	c0,0.2,0.1,0.4-0.2,0.4c-0.2,0-0.4,0-0.6-0.1c0.1-0.1,0-0.2-0.1-0.2c0.2-0.1,0.5-0.2,0.7-0.2c0.1-0.1,0.2-0.3,0.4-0.3v-1.4
	c-0.2,0.1-0.4,0-0.5-0.1l0.1-0.1c0.2-0.2,0.4-0.1,0.4-0.4c0-0.1,0-0.1,0-0.2v-7.7C6.6,13.1,6.3,13.5,5.9,13.2z M0.9,6
	C0.8,5.9,0.8,5.7,0.7,5.6C0.6,5.2,0.3,5.8,0.5,5.1C0.6,5.3,1.4,5.9,0.9,6z M1.5,0.9c1,0.3,0-0.7,0.9-0.9C2.3,0.2,2,0.3,2,0.6
	c0.3,0.2,0.3-0.4,0.6-0.3C2.3,0.8,2.9,1.4,3.2,0.9C3,1.8,1.8,0.7,1.6,1.1C1.5,1.1,1.4,1,1.5,0.9z M2.1,4.9C2,4.7,1.7,4.6,1.5,5
	c0-0.2,0-0.3,0-0.5c0-0.3,0.2-0.5,0.4-0.6c0,0,0,0,0,0c0.2,0,0.1,0.2,0.2,0.3c0.3,0.3,0.2-0.4,0.3-0.5S2.8,3.5,3,3.4V4
	C2.6,3.7,2.2,4.5,2.3,4.9c0.5,0,1.4-0.7,1.5,0.2C3.5,5.1,3.4,4.9,3.1,5C3,5,2.8,4.8,2.7,4.9S2.6,5.5,2.5,5.4S3,5.3,3.1,5.3
	c0,0.3-0.1,0.5,0.3,0.5c0.2,0,0.3-0.2,0.2-0.3c0,0,0,0,0,0c0.6,0,0.4-0.5,0.8-0.6c-0.1-0.2-0.2,0-0.3,0c0-0.2,0.3-0.9,0.5-0.4
	c-0.3,0.1,0,0.2,0.1,0.3s0.1,0.3,0.1,0.5s0.7-0.2,0.2-0.2C5,5,5,4.8,5,4.7c0.4,0,0.2,0.9,0.1,1.1C5,5.8,4.9,6,5,6.1
	c-0.1,0-0.2,0-0.3,0.1C4.4,6.5,4.3,6,4.3,5.8C3.9,6,3.9,6.3,4.3,6.3c0.1,0.3-0.7,0-0.9,0.1S2.9,6.8,3.2,7.1C3,7.1,3.1,7.6,3,7.6
	S2.8,7.3,2.8,7.2S2.6,7.4,2.4,7.4c0-0.2,0.6-0.5,0.3-0.5c0-0.4,0.3-0.6,0.2-1c-0.6,0-0.7-0.2-0.7-0.8l0-0.2c0,0.1,0,0.3,0,0.4
	S2.1,5.5,2.1,5.6L2,5.6C1.9,5.4,2,5.1,2.1,4.9L2.1,4.9z M3.2,8.7c-0.1-0.2,0-0.4,0-0.4s0.1-0.2,0.2-0.2s0.1,0.2,0.1,0.2
	S3.6,8.6,3.2,8.7z M3.1,10.3C2.7,10.2,2.5,10,3,9.5C3,9.5,2.9,10.1,3.1,10.3z M2.1,12.6L2,12.3C2.4,12.1,2.5,12.5,2.1,12.6L2.1,12.6
	z M4.2,22.1c-0.2-0.1-0.3-0.1-0.5,0c-0.1-0.4,0.2-0.7,0.5-0.9C4.4,21.6,4,21.8,4.2,22.1L4.2,22.1z M2.8,21.1c-0.2,0-0.5,0-0.6,0.2
	s0,0.4-0.2,0.5c0-0.6,0.5-0.8,0.6-1.4c0.5,0.3,0.2-0.8,0.7-0.9c1.1-0.4,0.1,0.9,0.5,1c-0.1-0.4,0.6-0.2,0.7,0
	C4,20.8,3.4,21,2.8,21.1z M3.2,14.2c0.3,0.2,0.5,0.5,0.2,0.8l-0.4,0.5C3.1,15,3.3,14.6,3.2,14.2z M4.2,17.3L4.4,17l0.3,0.1
	C4.7,17.4,4.6,17.5,4.2,17.3L4.2,17.3z M5.7,22c-0.2-0.2-0.3,0-0.5-0.2c0.2-0.2-0.2-0.3,0.1-0.6C5.6,21.4,6.1,21.7,5.7,22z
	 M5.3,18.2h0.2c0.4,0.1,0.2,1.2,0.2,1.5C5.4,19.8,5.3,18.4,5.3,18.2L5.3,18.2z M5.3,10.4l-0.3,0c-0.2,0-0.5-0.2-0.7-0.1
	s-0.2,0.4-0.5,0.3c0-0.1,0.2-0.2,0.2-0.3c-0.1,0-0.2-0.1-0.3-0.1c-0.5,0.4-1.1,1.2-1.7,0.7c0.2-0.2,0.5,0.1,0.7-0.2
	c0.1-0.1,0.1-0.8,0.4-0.6c-0.1,0.2,0.1,0.1,0.2,0H3.2c0.1,0,0.2,0,0.3-0.1h0.2l0,0c-0.1-0.1-0.2-0.3-0.2-0.4c0-0.1,0.1-0.1,0.2-0.1
	c0,0,0,0,0.1,0.1c-0.1,0.1,0,0.2,0.1,0.3l0,0c0.1,0.1,0.8-0.4,1-0.5C5,9.7,4.7,9.7,4.6,9.8l0.5,0.4c0.1,0,0.2,0,0.2,0
	c0.1,0.1,0.3,0.1,0.4,0.1c-0.1-0.1-0.2-0.2-0.4-0.2c0,0,0,0-0.1,0C5.3,10,5.2,9.8,5.1,9.7C5,9.4,4.7,9.1,4.5,8.9
	c0.2-0.4,1.2,1,1.5,1.2C6,10,6,9.9,6,9.8c0-0.3-0.3-1.3,0.3-1.3C6.2,9.1,7,9.3,6.1,9.2c0,0.2,0.3,0.2,0.5,0.2
	C6.5,9.5,6.4,9.6,6.4,9.7c0.1,0,0.2,0,0.3-0.1c0,0.4-0.1,0.7-0.1,1.1H6.4c0.2,0.1,0.1,0.2,0,0.3c0.1,0.1,0.2,0.3,0.2,0.4
	c-0.1,0-0.2,0-0.3-0.1l0.1,0.3c-0.2,0.1-0.3-0.3-0.4-0.6S5.5,10.5,5.3,10.4L5.3,10.4z M6.3,18.7c0.2-0.2,0.4-0.1,0.5-0.4
	C7.2,18.6,6.6,19,6.3,18.7L6.3,18.7z"/>
<path class="st0" d="M17.7,22.6c-0.2-0.2-0.3-0.4-0.4-0.6c0-0.1,0-0.1-0.1-0.2L17,22c0.1,0.2,0,0.4-0.2,0.5l-0.3-0.4
	c-0.2,0.1,0,0.5,0.1,0.6c-0.2,0.1-0.9,0.2-0.7,0.5c0.1,0.1,0.2,0.1,0.3,0.1v-0.1h0.1c0,0,0-0.1,0-0.2c0.2-0.1,0.3,0.2,0.4,0.3
	c0,0-0.1,0-0.1,0.1h0.1c0.3-0.1,0.2-0.4,0.5,0.1c-0.3,0-0.3,0.2-0.6,0.2s-0.2-0.1-0.3-0.2c-0.1,0-0.2,0.1-0.3,0.1
	c-0.3-0.5-0.4,0-0.7-0.3c0.4-0.2,0.2-0.5,0.4-0.8c-0.1-0.1-0.3-0.1-0.3,0.1c-0.1,0.7-0.1,0.2-0.3-0.3c0.4,0,0.5,0,0.5-0.4
	c0.3-0.2-0.1-0.5,0.1-0.7c-0.1-0.1-0.4,0.1-0.5,0.2c-0.2-0.2-0.5,0-0.7,0.1c0.2,0.1,0.4,0,0.6,0.2c-0.1,0.1-0.3,0.1-0.5,0
	c0,0.1-0.1,0.2-0.1,0.3c0.2,0.1,0.4-0.1,0.5-0.2c0.1,0.3,0,1.3-0.5,1.2c0.3-0.5-0.1-0.7-0.2-1.1s0.1-0.7,0.3-0.9s0.1-0.7,0.5-0.6
	c-0.2-0.1-0.5-0.5-0.8-0.4c-0.1-0.2-0.1-0.5-0.4-0.6c-0.2,0-0.4,0.3-0.6,0s-0.4,0.1-0.6-0.2c-0.4-0.6,0.7-0.7,0.5-1.2
	c0.3-0.2,0.6-1.1,1.1-0.5c-0.4,0.3-1,0.3-0.9,0.8s0.5-0.2,0.8,0.1c-0.1,0.1-0.5,0.3-0.5,0.5s-0.1,0-0.3,0.2c0.3,0.6,0.9-0.3,1.1-0.5
	c0.2,0.3,0.4,0.8,0.7,1.1c0-0.2,0-0.4,0-0.6c0.2,0.1,0.7,0,0.4-0.2s-0.4-0.4-0.1-0.6c-0.3-0.1-0.6-0.2-0.9-0.1
	c-0.3-0.2,0-0.6,0.2-0.8c0.2,0.2,0,0.5,0.4,0.6s0.5,0,0.5-0.3c0.3,0.2,0.4-1-0.1-0.7c-0.1-0.2,0.1-0.1,0.2-0.2
	c-0.1-0.3-0.8-0.1-0.5-0.4c0.2,0.2,0.4,0.1,0.5-0.2c0.1,0.4,0.3,0.7,0.6,1c0.2,0.2,0.7-0.1,0.6-0.3c-0.1,0-0.1,0-0.1,0
	s0.6-0.1,0.7,0s-0.2,0.4,0.2,0.5c-0.1,0.2-0.3,0.1-0.5,0.2c0.2,0.3,0.5,0.3,0.6,0.6c0,0.2,0,0.4-0.2,0.5c-0.1-0.1-0.2-0.1-0.3-0.1
	c-0.1,0.1,0.1,0.4,0,0.5c-0.1-0.5-0.7,0-0.2,0.2c0,0.2-0.1,0.2-0.3,0.3l0,0c-0.1,0-0.2,0.1-0.2,0.1c0.1,0.3,1.3,0.8,1.5,0.5
	c0,0,0-0.1,0-0.1v-0.3c-0.1-0.1-0.4-0.1-0.5-0.3c0.4-0.3-0.1-1,0.5-0.8l0,0v-3.7c0,0,0-0.1,0-0.1l0,0V0h-7v3c0.1,0,0.2,0.3,0,0.3
	v3.3c0.2-0.1,0.6-0.2,0.5,0.2c0.4-0.3,0.6-0.6,1.2-0.6c0,0.1-0.1,0.3-0.1,0.4c0.1,0.1,0.3,0.2,0.4,0.4c0.5,0,0.1-0.7-0.1-0.5
	c-0.1-0.5,0.2-0.9,0.7-1c0.3-0.1,0.5-0.2,0.3-0.6c0.3-0.1,0.6,0.4,0.9,0.4S15,6.1,15,6.3c-0.3-0.2-0.9,0.5-0.8,0.6s0.5,0.7,0,0.6
	S14.1,7.3,13.9,7c-0.7,0.1-1.2,0.9-2,0.8c-0.5,0-0.4-0.3-0.6-0.6C11.2,7.1,11.1,7,11,6.9v8.2c0.2,0.1,0.5,0.1,0.7,0s0.3,0.6,0.5,0.6
	c-0.3,0.3-0.8,0.1-1.1-0.2v11.1h7v-4.1C18,22.7,17.9,22.7,17.7,22.6z M12.4,5.6l-0.1,0.1c-0.1-0.3-0.1-0.6,0.2-0.2L12.4,5.6z
	 M12.5,1.1c-0.4,0-0.1-0.5,0.3-0.4C12.8,0.9,12.5,0.9,12.5,1.1L12.5,1.1z M13.2,5.3c0,0,0,0.1,0,0.1c-0.1-0.2-0.4,0-0.5,0.1
	C12.6,5.2,13,5.2,13.2,5.3c0.1-0.2,0-0.4,0-0.5C13.7,4.9,13.4,5.2,13.2,5.3L13.2,5.3z M13.3,11.6c0.2-0.2,0.5,0.1,0.4-0.3
	c0,0,0.1,0.1,0.1,0.1c0-0.1,0-0.1,0-0.2c0.2,0.1,0.3,0.2,0.2,0.4c0,0,0.1,0,0.1,0c-0.1-0.1-0.1-0.3,0-0.4c0,0,0,0,0,0
	c0.2,0.2,0.1,0.5,0.4,0.6c-0.3,0.3-0.8-0.3-1,0.4C13.4,12,13.2,11.8,13.3,11.6L13.3,11.6z M13.4,15.9l0.1,0.3
	c-0.4,0.1-0.6,0.4-0.7-0.1L13.4,15.9z M11.9,17.3c-0.4-0.2-0.2-0.2-0.6-0.1c0-0.2,0-0.3-0.1-0.5c0.2,0,0.3,0,0.5-0.1
	c0.1,0.7,0.7,0.5,1.1,0.2S13.3,17,13,17c-0.2,0-0.5,0-0.3,0.3S12,17.4,11.9,17.3L11.9,17.3z M13,24.9c0.3-0.1,0.5,0.1,0.6,0.4
	C13.1,25.4,13.1,25.3,13,24.9z M13,20.7c-0.1,0-0.2-0.1-0.1-0.2c0.3,0.2,0.7-0.3,0.8,0.1C13.4,20.6,13.2,20.8,13,20.7z M13.9,20.9
	C14.5,21.2,13.4,21.8,13.9,20.9z M14,24.4c-0.3,0,0.1-0.3-0.2-0.3c0,0.2-0.2,0-0.2-0.2c0.4,0,0.5-0.2,0.5,0.3
	C14,24.3,14,24.3,14,24.4z M16.6,24.6C15.6,24.1,16.8,24.1,16.6,24.6z M16.4,26.6c0.1-0.2,0.9-0.4,0.8,0
	C16.9,26.4,16.7,26.7,16.4,26.6L16.4,26.6z M17.5,25.4c-0.2-0.1-0.2-0.7-0.1-0.7c-0.4,0-0.1,0.4-0.4-0.2
	C17.6,24.2,18.2,25,17.5,25.4L17.5,25.4z"/>
</svg>
