<?xml version="1.0" encoding="utf-8"?>
<!-- Generator: Adobe Illustrator 22.1.0, SVG Export Plug-In . SVG Version: 6.00 Build 0)  -->
<svg version="1.1" id="Layer_1" xmlns="http://www.w3.org/2000/svg" xmlns:xlink="http://www.w3.org/1999/xlink" x="0px" y="0px"
	 viewBox="0 0 22.8 26.3" style="enable-background:new 0 0 22.8 26.3;" xml:space="preserve">
<style type="text/css">
	.st0{fill:#FFFFFF;}
</style>
<title>playGOT</title>
<path class="st0" d="M21.1,12.2c0.1,0.2,0,0.6-0.4-0.1c0.1,0,0.1,0,0.2,0l-3.5-2c-0.2,0.4-0.5,0.7-0.8,1c0-0.3-0.7-0.4-1-0.2
	s0.1,0.3-0.1,0.4s-0.3,0-0.4-0.2c-0.4,0.3-0.9,0.4-1.1-0.1c0.2-0.1,0.4,0.3,0.5-0.1s0.1-0.5,0.5-0.6c0,0.3,0.5,0.9,0.5,0.4
	c-0.3,0.1,0-0.4-0.2-0.6c0.4-0.1,0.6,0.1,0.6-0.5c0-0.1,0.1-0.2,0.2-0.3L15.6,9c-0.2,0.1-0.3,0.3-0.5,0.5c-0.1,0.1-0.6,0.5-0.7,0.2
	S15,9,15.2,8.9l-0.1-0.2l-0.5-0.3c-0.2,0.4-0.8,0.6-0.5,1.2c-0.1,0.1-0.6,0.1-0.6,0.4c-0.2,0-0.2-0.3-0.4-0.2
	c0.1-0.3-0.2-0.3-0.1-0.5s0.4,0,0.5,0c0.5-0.1,0.4-0.9,0.4-1.2c-0.5,0.2-0.2,0.9-0.9,1c0.2-0.4-0.1-0.5-0.3-0.8
	C13,8.3,13,8.1,13.2,8c-0.3-0.3-0.8-0.3-1.2-0.1c-0.1-0.2,0.5-0.4,0.9-0.5l-1.5-0.9l-1-0.6c0.1,0.2,0.2,0.4,0.2,0.7
	c0,0.1-0.1,0.2-0.2,0.2c0-0.2-0.1-0.3-0.2-0.5c-0.1-0.2-0.4-0.3-0.4-0.5c0-0.1,0-0.1,0-0.2L8,4.6H7.9V4.6L0,0v2.8c0,0,0,0,0.1-0.1
	c0.4-0.2,0.3,0.5,0,0.3c0,0.2,0.3,0.1,0.3,0c0.1,0.1,0.2,0.1,0.3,0.2C0.8,3,0.5,3,0.5,2.8c0.2-0.1,0.2-0.4,0.4-0.4
	c0-0.2-0.4-0.2-0.4-0.4h0.1L1,1.7c0.1,0.1,0,0.1,0,0.2c0.2-0.1,0.3-0.1,0.5-0.2S1.7,1.8,2,1.8C1.7,2.2,1.3,2,1,2
	c0.1,0.2-0.1,0.4,0.2,0.5c0.1,0,0.3,0,0.3,0.2c0.1,0,0.1-0.2,0.2-0.3c0.3,0.2,0,0.3,0.2,0.6S2,2.9,2,3.2c0,0.1,0,0.2,0,0.3
	C1.9,3.7,1.8,3.9,1.7,4C1.4,4.2,1.4,3.8,1.2,4C1.1,4.1,1,4.1,1,4.2c-0.1,0-0.2,0.1-0.4,0.1C0.5,4.4,0.5,4.6,0.5,4.7c0,0,0,0,0,0
	C0.7,5.1,0.3,5,0.1,4.9v3c0-0.1,0-0.3,0.2-0.3c0.4-0.2,0.3,0.5,0,0.4c0,0.2,0.3,0.1,0.3,0C0.6,8,0.7,8.1,0.8,8.1
	c0.1-0.4-0.2-0.4-0.2-0.6C0.9,7.4,0.8,7.1,1,7.1c0-0.2-0.4-0.2-0.4-0.4h0.1C0.9,6.6,1,6.5,1.1,6.4c0.1,0.1,0,0.2,0,0.2l0.5-0.2
	C1.9,6.3,1.8,6.5,2,6.5C1.9,6.8,1.4,6.7,1.1,6.7c0,0.1,0,0.2,0,0.3c0-0.2,0.3,0,0.4-0.1C1.5,7,1.3,7,1.2,7s0,0-0.1,0s0,0.1,0.1,0.2
	s0.3,0,0.3,0.2S1.7,7.1,1.7,7c0.3,0.2,0,0.3,0.2,0.6s0.3,0,0.2,0.3c0,0.1,0,0.2,0,0.3C2,8.4,1.9,8.6,1.8,8.7c-0.3,0.2-0.2-0.2-0.5,0
	C1.2,8.7,1.1,8.8,1,8.9C0.9,8.9,0.8,8.9,0.7,9C0.6,9.1,0.5,9.2,0.6,9.3c0,0,0,0,0,0C0.8,9.8,0.3,9.6,0,9.6C0.1,9,0,8.8,0.7,8.9
	C0.6,8.7,0.5,8.5,0.4,8.3C0.4,8.2,0.6,8.2,0.6,8C0.4,7.8,0.4,8.3,0.2,8.1c0,0.1,0.1,0.3,0.1,0.4S0.1,8.6,0,8.7v17.7l8.2-4.7l0,0
	c0.2-0.3-0.3-0.2-0.4,0c0-0.1-0.1-0.5,0-0.6c0,0.1,0.1,0.3,0.3,0.2c0-0.1,0-0.3,0.1-0.4c-0.1,0-0.3,0-0.4,0c0-0.2,0.8-0.3,1-0.2
	c0,0.1-0.2,0.2-0.4,0.2c0.1,0.1,0.2,0.2-0.1,0.3S8,21.2,8.1,21.3s0.3,0.2,0.3,0.1s0.3-0.4,0.6-0.5c-0.2-0.1-0.3-0.3-0.2-0.5
	c0,0,0,0,0-0.1l0.7,0.4c0,0.1-0.1,0.2-0.2,0.2c0,0,0.1,0,0.1,0c0,0,0,0,0,0.1l1.6-0.9c-0.2,0-0.3-0.1-0.1-0.2
	c-0.2,0-0.8-0.3-0.9-0.2s0.1,0.5-0.2,0.4c0.2-0.4-0.2-0.6-0.3-0.9c-0.1,0.1-0.2,0.3-0.4,0.2c0-0.1,0.2-0.2,0.2-0.3s0-0.4,0.4-0.3
	c0.1,0.1,0.1,0.1,0.1,0.2c0,0,0,0.1,0,0.1c0,0,0.1,0.1,0.2,0c0.4,0,0.6,0.4,0.9,0.6s0.1-0.3,0.3-0.4c0,0.2,0.2,0.3,0.3,0.4l11.2-6.5
	L21.1,12.2z M1.1,10.1c-0.2,0.2-0.3,0-0.1-0.2C1.2,9.9,1.2,10,1.1,10.1L1.1,10.1z M1.4,10.9L1.4,10.9c0-0.2,0.2,0,0.2,0.1
	c0-0.1,0.1-0.1,0.1,0C1.6,11.4,1.6,11,1.4,10.9L1.4,10.9z M2.2,13.7c0-0.2-0.1-0.4,0.2-0.3h0.1C2.5,13.6,2.4,13.8,2.2,13.7L2.2,13.7
	z M2.3,5.5C2.2,5.2,2.4,5.1,2.5,5.4L2.3,5.5z M2.8,3.3c0.2-0.2,0.3-0.1,0.5,0.1C3.1,3.6,2.9,3.5,2.8,3.3L2.8,3.3z M4.1,14.7
	c-0.3,0.1-0.2-0.4,0.1-0.4C4.2,14.5,4.1,14.6,4.1,14.7L4.1,14.7z M4.4,8.4C3.9,8.8,4.1,9.1,3.8,9.5C3.5,9.1,3.6,8.4,4.1,8.1
	C4.2,8.1,4.3,8,4.5,8c0.3-0.1,0.1-0.8,0.5-0.7c-0.2,0.4,0.6-0.2,0.8,0C5.4,7.8,4.9,8.1,4.4,8.4z M8.3,11.7C8.2,11.9,8.1,12,8,12.2
	c-0.2,0.2-0.1,0.3-0.4,0.4c-0.2,0-0.1-0.1-0.2-0.2s-0.2,0-0.2,0.1c-0.2,0-0.2-0.6-0.1-0.7s0-0.3,0.3-0.4s0.3,0.1,0.3-0.3
	c0.2-0.1,0.1-0.2,0.4-0.1c0.1,0,0.1,0.1,0.2,0.1c0.2,0,0.3-0.2,0.4-0.3C8.5,11.2,8.4,11.4,8.3,11.7z M10,7c0.1-0.2,0.4,0,0.5,0.2
	c-0.4,0-0.5,0.2-0.8,0.3c0-0.1-0.1-0.2-0.1-0.3C9.9,7.1,9.9,7.2,10,7z M8.8,11.3c0.1-0.2,0.6-0.4,0.8-0.5c0.2-0.2,0.5-0.4,0.8-0.4
	C10.2,10.6,9.1,11.6,8.8,11.3z M8.9,12.5c0.2,0,0.2,0.4,0.2,0.5C8.9,13.1,8.9,12.6,8.9,12.5z M11.9,15.2c0.3-0.1,0.3,0.6-0.1,0.5
	c-0.3-0.1-0.3-0.4-0.6-0.3c0.1-0.1,0.2,0,0.3-0.1s0.1,0,0.1-0.1v-0.1c0,0-0.1,0-0.1,0c-0.2,0-0.3,0-0.5,0c-0.2-0.1-0.3-0.1-0.1-0.2
	c-0.2,0.1-0.8-0.3-0.9-0.2s0.1,0.5-0.2,0.4c0.2-0.4-0.2-0.6-0.3-0.9c-0.1,0.1-0.2,0.3-0.4,0.2c0-0.2,0.2-0.2,0.2-0.3s0-0.4,0.4-0.3
	c0.1,0,0.1,0.1,0.1,0.2c0,0,0,0,0,0c0,0,0,0.1,0,0.1c0,0.1,0.1,0.1,0.2,0c0.4,0,0.6,0.4,0.9,0.6s0.1-0.3,0.3-0.4
	c0.1,0.2,0.2,0.3,0.3,0.4c0.1,0,0.1,0.1,0.1,0.1l0,0c0.1-0.1,0.7-0.6,0.9-0.4c-0.2,0.2-0.4,0.3-0.6,0.3
	C11.9,15.1,11.9,15.2,11.9,15.2z M19.2,15.1c-0.2,0.1-0.5-0.5-0.7-0.4s-0.9-0.2-1.1-0.4C17.6,13.7,19.5,14.9,19.2,15.1z"/>
</svg>
