<?xml version="1.0" encoding="utf-8"?>
<!-- Generator: Adobe Illustrator 22.1.0, SVG Export Plug-In . SVG Version: 6.00 Build 0)  -->
<svg version="1.1" id="Layer_1" xmlns="http://www.w3.org/2000/svg" xmlns:xlink="http://www.w3.org/1999/xlink" x="0px" y="0px"
	 viewBox="0 0 25.2 26.8" style="enable-background:new 0 0 25.2 26.8;" xml:space="preserve">
<style type="text/css">
	.st0{fill:#FFFFFF;}
</style>
<title>rewindGOT</title>
<path class="st0" d="M25.2,8.1V0l-1.1,1.1c0,0.1-0.1,0.2-0.2,0.2L22.2,3c0.1,0.2,0.3,0.2,0.2,0.5c-0.2,0-0.4-0.1-0.6-0.2l-0.2,0.2
	c0.5-0.2,0.5,0.3,0.9,0.5c0.1,0.1,1,0.1,0.9,0.4c-0.1,0-0.5-0.2-0.6,0s0.1,0.4-0.3,0.3S22.2,4.9,22,4.8c0.1-0.2-0.1-0.3-0.3-0.4
	c0.4-0.2,0.3-0.8,0-0.8s-0.2,0.2-0.1,0.4s-0.2,0-0.5,0l-0.3,0.3c0,0.1,0.3,0.1,0.4,0.1c0.3,0.1,0,0.2,0.2,0.4c0,0.3-0.7,0.3-0.8,0.3
	c-0.4,0-0.3,0.3-0.8,0.2h-0.1l-1.2,1.2l-3.8,3.8c0.1,0,0.1,0.1,0.2,0.1c-0.1,0.2-0.3,0.3-0.5,0.2c0.2-0.4-0.3-0.4-0.6-0.4
	c-0.1,0.3,0.2,0.4,0.4,0.4c-0.2,0.4-0.8,0.1-1,0.3c0.1-0.2,0.8-0.8,0.5-1c-0.3-0.1,0.1-0.5,0.4-0.1c0-0.2,0.1-0.2,0.4-0.1
	c0,0.2,0,0.3,0.1,0.5V2.8c-0.3-0.1-0.5,0-0.7,0.1c-0.1-0.3,0.3-0.4,0.7-0.4V0l-1.8,1.7C12.9,1.9,13,2.1,13,2.3
	c-0.2-0.1-0.2,0.1-0.2,0.2L12.5,2L10,4.5c0,0.1,0.1,0.3,0.2,0.3c0.4,0.2,0.2-0.8,1-0.5c-0.4,0.3-0.7,0.8-0.6,1.3
	C10.2,5.5,10,5.3,9.7,5.5c0-0.3,0-0.6,0.1-0.8L7.9,6.6L7.2,7.3c0.1,0.1,0.1,0.2,0.1,0.3C7.2,7.6,7.1,7.5,7,7.4L6.8,7.7l0,0
	C6.8,7.9,6.9,8.1,7,8.4c-0.2,0-0.3,0-0.5,0c0,0.2,0.2,0.2,0.3,0.4C6.4,8.8,6.9,9.4,7,9.6L6.5,9.7c0-0.1,0.2-0.2,0.3-0.2
	C6.5,9.3,6.5,8.9,6.3,8.6C5.9,8.9,6.3,9.2,6,9.3C5.9,9.1,5.9,8.8,5.9,8.6L4.5,10l0,0c0.1,0,0.3,0,0.4,0.1c0.3,0.2,0.3,0.6,0.5,0.9
	c0,0.1-0.1,0.2-0.2,0.2c-0.1,0-0.2-0.1-0.2-0.2c0-0.4-0.3-0.5-0.6-0.6c0-0.1,0-0.3-0.1-0.4l-0.1,0.1V0.8c-0.1,0-0.1,0-0.2-0.2
	s0-0.3,0-0.4H0v3.1C0.1,3.1,0.3,3,0.5,3C0.4,3.2,0.3,3.4,0.2,3.6c0.2,0,0.2-0.2,0.4-0.1c0,0.3-0.1,0.4,0,0.6c-0.3,0-0.1,0.3-0.4,0.3
	S0,4.5,0,4.8l0,0v9.8c0.2,0.1,0.3-0.1,0.4,0.3c0,0.2,0.1,0.3,0.1,0.5c-0.1,0-0.1,0.6-0.2,0c0-0.2-0.1-0.5-0.3-0.4c0-0.1,0-0.2,0-0.3
	v2.9c0.2-0.1,0.3-0.8,0.6-0.6c0,0.2-0.1,0.4-0.2,0.7c0.1,0,0.2,0.1,0.3,0.2c0,0,0.1-0.1,0.1-0.1c0,0,0,0.1,0,0.1l0,0
	c0-0.4-0.3-0.2-0.2-0.8c0.1,0.2,0.2,0.1,0.3,0s0,0.4,0.1,0.5s0.3,0.1,0.2,0.5c-0.1,0.1-0.2,0.4-0.3,0.4c0-0.2-0.2-0.1-0.3-0.1
	c0-0.1-0.1-0.2-0.1-0.2c-0.1,0.2-0.2,0.3-0.4,0.4c-0.1-0.2,0.2-0.4,0-0.7l0.1-0.1L0,17.5v9.2h4.2v-7.7c-0.2,0-0.4,0-0.5-0.1
	c0.2-0.1,0.3-0.1,0.5-0.1v-2.7l3.7,3.6L8,19.9h0.1c0.1,0.3,0.2,0.2,0.4,0.1c0,0.2-0.1,0.2-0.2,0.2l3.8,3.7c0-0.2,0-0.4,0-0.4
	c0.3,0.4,0.3,0.3,0.7,0.5c0.1,0.1,0.2,0.1,0.3,0.2c-0.1,0.1-0.1,0.1,0,0.2c0.1,0.2,0.2,0.5,0.2,0.7l0.7,0.6l0,0c0,0,0.4,0.4,0.5,0.3
	c0,0,0,0,0-0.1v-0.3c-0.1-0.1-0.2-0.2-0.3-0.2c-0.2-0.1-0.4-0.5,0.1-0.4c0.1,0,0.2,0.1,0.2,0.2v-5.4c-0.1,0-0.2,0.1-0.2,0.3
	c0,0.1,0,0.2-0.1,0.2c-0.3,0-0.2-0.4-0.2-0.6c0-0.7,0.3-0.7,0.4-0.5v-0.7l0,0c-0.3,0.3-0.6,0.5-1,0.5c0.2-0.3,0.2-0.6,0.1-0.9
	c-0.1-0.3-0.5,0.6-0.5,0.7l0,0c0,0,0,0.1,0,0.1C13,19,12.9,19,12.8,19c0.1,0.1,0.3,0.2,0.2,0.3l-1-0.5c0.2-0.2,0-0.4-0.2-0.3
	s-0.4,0-0.6-0.1c0-0.1,0.1-0.2,0.3-0.2c0,0,0,0,0,0c-0.1,0.3,1.3,0.1,0.4-0.5c0.3-0.3,0.8,1,1.3,0.3c0.1,0.1,0.2,0,0.2-0.1
	c0.1,0.2,0.1,0.2,0.2,0.2c0-0.2,0.1-0.4,0.2-0.5c0,0.1,0,0.3,0.1,0.4c0.1-0.1,0.2-0.1,0.3,0c-0.1,0.2-0.5,0.3-0.3,0.7
	s0.5,0.1,0.6-0.2c0,0,0-0.1,0.1-0.1v-1.1c-0.1-0.1-0.1-0.2-0.1-0.3h0.1v-1.2l4,3.9l0.9,0.9c0.1-0.2,0.4-0.3,0.5-0.4
	c0.4-0.3-0.1-1.4-0.5-0.6c-0.1-0.1-0.1-0.1-0.2-0.2c0,0,0,0.1,0,0.1c-0.2,0.1-0.4-0.1-0.5-0.2c0.1-0.1,0.3-0.1,0.5,0
	c-0.1-0.3-0.1-0.5-0.1-0.8l-0.5,0.2c-0.1-0.3,0-0.4,0.3-0.5c-0.2-0.3-0.4-0.5,0-0.7c0,0.2,0.1,0.3,0.1,0.3c-0.1-0.1-0.2-0.2-0.1-0.4
	l0.1,0.1c0.2,0.3,0.4-0.1,0.7,0s0.5,0.2,0.4,0.5s0.2,0.5,0.3,0.7c-0.2,0.3-0.2-0.1-0.5,0.1l0,0l-0.1,0.1c-0.3,0.4,0,0.5,0.3,0.5
	s1,0.2,0.5,0.4c0-0.2-0.2-0.4-0.4-0.1s0.3,0.1,0.2,0.3c0,0.1-0.5,0-0.6,0.1c0.1,0.2,0.1,0.4-0.1,0.6c-0.1-0.1-0.2-0.1-0.2,0
	c-0.1,0.1-0.2,0.2-0.2,0.2l4.2,4.2c0.1,0,0.3,0,0.5,0c0,0.1-0.1,0.2-0.2,0.3l1.1,1.1v-4.6c-0.2,0-0.6-0.1-0.5-0.4
	c0.1,0,0.4,0,0.5,0.1v-3.5c-0.1,0.2-0.2,0.3-0.3,0.4c-0.1-0.1-0.1-0.2,0.1-0.2c-0.1-0.3-0.3-0.2-0.5-0.3c0.2,0,0.6-0.3,0.7-0.2v-2
	l-0.1-0.1l0.1-0.1v-0.1c-0.1,0.1-0.2,0.1-0.3,0.1c-0.5-0.4-0.1,0.4-0.5,0.4c0.2,0.4,0.4-0.2,0.6-0.1c-0.3,0.6-0.9,0.6-0.9,1.5
	c-0.2,0-0.3-0.5-0.3-0.6c-0.2,0.2-0.6,0.3-0.5,0.6c-0.2-0.1-1.4-0.8-0.6-0.9c-0.2,0.3,0.1,0.4,0.4,0.4C23,16.5,23,16.4,23,16.3h-0.1
	c0-0.1,0.1-0.1,0.1-0.1c0-0.2,0.4-0.3-0.2-0.6s0.5-0.2,0.5-0.4c0.3-0.4,0.4-0.9,0.4-1.4l0,0c0-0.1,0-0.1,0-0.2c0-0.1,0-0.1,0-0.2
	l0,0c-0.1-0.1-0.2-0.1-0.2,0c-0.2-0.2,0-0.3,0.3-0.3c0,0-0.1-0.1-0.1-0.1c-0.2-0.1,0.1-0.7,0.3-0.8c0.4,0.1,0.9,0.1,1.3-0.1V8.4
	c-0.3,0.1-0.6,0-0.9-0.1C24.7,7.4,24.9,8.1,25.2,8.1z M0.3,22.8c0.2,0,0.1-0.2,0.2-0.3c0,0.2-0.1,0.3,0.1,0.5
	C0.5,23,0.3,23.1,0.3,22.8z M0.5,25.4c0-0.5,0-0.3,0.2-0.3C0.8,25.3,0.6,25.4,0.5,25.4z M2.4,9.9C2.3,10,2.1,10.2,2.1,10
	s0.3-1,0.5-0.8C2.4,9.4,2.3,9.6,2.4,9.9z M2.1,10.6c-0.1-0.1-0.2,0.4-0.4-0.2c0.1,0,0.1-0.5,0.1-0.6C2,10,2,10.4,2.1,10.6z
	 M2.1,11.1c0.1,0,0.2,0.1,0.2,0.1c0-0.1-0.6,0.6-0.7,0.7C1.3,11.7,1.8,11.1,2.1,11.1L2.1,11.1z M1.9,12.5L1.4,13l0,0
	C1.5,12.8,1.7,12.6,1.9,12.5L1.9,12.5z M4.1,1.8c0.1,0.1,0,0.7-0.1,0.6C3.8,2.2,4.1,2,4.1,1.8z M3.8,1.3c0,0.1,0.3,0.4,0.2,0.6
	C3.9,1.7,3.7,1.5,3.8,1.3z M2.4,5.3C2.5,5.3,2.5,5,2.5,5l0.3,0.3c0-0.2-0.2,0-0.2-0.3c0.1,0,0.2-0.1,0.2-0.2l0,0
	c0.1-0.4,0-1.1-0.3-0.9S2.4,3.5,2.7,3.8C2.8,3.9,2.8,4,3,3.9C2.9,4.3,3,4.3,3,4.6c0,0,0,0.1,0,0.2h0C3,4.9,3,5,3,5.1
	C3.1,5.4,3.4,5.8,3.3,6C3.2,5.9,3.1,5.7,3.1,5.5c0,0-0.1,0-0.1,0c0,0.1-0.1,0.1-0.1,0.1c0,0-0.1,0.1-0.1,0.1c0,0,0-0.1,0-0.1l0,0
	l0,0c0,0,0-0.1,0-0.1c-0.1,0.2,0,0.4-0.1,0.6c0-0.1-0.1-0.2-0.1-0.3c-0.1,0.2,0,0.4,0,0.6c0-0.2-0.2-0.3-0.1-0.6
	C2.1,5.6,2.2,5.2,2.4,5.3z M2.3,7.8C2,8,1.6,8,1.2,7.9C1.2,7.7,2.2,7.7,2.3,7.8z M1.9,0.9C1.7,1.3,1.5,1.1,1.4,0.8
	C1.6,0.5,1.6,1.2,1.9,0.9z M1.6,6.7c0,0.2,0,0.4,0,0.6C1.5,7.1,1.3,6.8,1.1,6.8C1.2,6.3,1.4,6.9,1.6,6.7z M1.3,16
	c0.1-0.2,0.2,0.1,0.1,0.2S1.2,16.2,1.3,16z M1.1,21.2H0.9c0-0.1,0-0.2,0-0.3S1.1,21,1.1,21.2z M1,26c0-0.2,0.1-0.4,0.3-0.5
	C1.4,25.9,1.1,25.8,1,26z M1,22c-0.6-0.5,0.4-0.8,0.4-0.5C1.5,21.6,1.1,22,1,22z M1.4,19.3c-0.3,0.3-0.3-0.4,0-0.5
	C1.6,18.9,1.3,19.1,1.4,19.3L1.4,19.3z M1.4,17c-0.1-0.1,0-0.3,0-0.4L1.7,17C1.6,17.1,1.5,17.1,1.4,17z M1.5,14.8
	c-0.3,0.1,0.4,1.2-0.4,0.9c0-0.1-0.2-0.1-0.2-0.1c-0.1-0.1-0.1-0.2,0-0.3c0-0.4-0.1-0.6-0.1-0.9s-0.3-1.1-0.1-1.2
	c0.1,0.5,0.3,0.4,0.4,0.1L2,14v0C2.2,14,1.7,14.7,1.5,14.8L1.5,14.8z M2,18.8c0,0.2,0.1,0.3,0.1,0.5l-0.3,0.1
	C1.9,19.1,1.9,18.9,2,18.8L2,18.8z M2.3,20.5H2C1.6,20,2.8,20,2.3,20.5L2.3,20.5z M2.5,23.2c0.2,0.1-0.2,0.2-0.2,0.1
	s0.2-0.6,0.3-0.6C2.6,22.8,2.5,23,2.5,23.2L2.5,23.2z M2.9,19.4c0,0.1,0.1,0.4-0.1,0.4c0.1-0.2-0.1-0.6-0.2-0.5s-0.1,0-0.1-0.3
	c0.1,0.1,0.2,0.1,0.3,0.2c0-0.2,0-0.4,0-0.6c0.3,0.1,0.1,0.1,0.3,0.2C3,19.1,2.8,19.1,2.9,19.4L2.9,19.4z M3.4,20.7
	C4,21.5,3.1,21.4,3.4,20.7z M3.6,20.9c-0.1,0.1-0.1,0-0.1-0.1s-0.2-0.5,0.1-0.4C3.8,20.8,3.5,20.5,3.6,20.9L3.6,20.9z M4.1,19.4
	c0.1,0.1,0.2,0.2,0.1,0.3C3.9,20,4,19.4,4.1,19.4L4.1,19.4z M4.2,22.6l-0.2,0.2c-0.1-0.1-0.1-0.3,0-0.5C4.1,22.4,4.2,22.5,4.2,22.6
	L4.2,22.6z M4.2,24.5c0,0.4-0.5,0.3-0.6,0.1C3.9,24,4,24.5,4.2,24.5L4.2,24.5z M3.5,21.7c0-0.1,0-0.2,0.1-0.3
	C3.9,21.5,3.7,21.7,3.5,21.7L3.5,21.7z M4,17.5c-0.1-0.2,0-0.6,0.1-0.7C4.2,17.1,4.1,17.5,4,17.5z M2.9,15.3c-0.1-0.2-0.7-0.7-0.5-1
	l0.3,0.3c0,0.1,0,0.1,0,0.2l0.1-0.1L3.1,15C3,15.1,3,15.2,2.9,15.3z"/>
</svg>
