<?xml version="1.0" encoding="utf-8"?>
<!-- Generator: Adobe Illustrator 22.1.0, SVG Export Plug-In . SVG Version: 6.00 Build 0)  -->
<svg version="1.1" id="Layer_1" xmlns="http://www.w3.org/2000/svg" xmlns:xlink="http://www.w3.org/1999/xlink" x="0px" y="0px"
	 viewBox="0 0 26.5 26.3" style="enable-background:new 0 0 26.5 26.3;" xml:space="preserve">
<style type="text/css">
	.st0{fill:#FFFFFF;}
</style>
<title>volumeGOT</title>
<path class="st0" d="M14.5,2.8C14.5,2.8,14.5,2.8,14.5,2.8V0L9.1,4.5v0.1H9.1L7.8,5.6c0,0.1,0,0.1,0,0.2c0,0.1-0.1,0.2-0.2,0.3H7.4
	c0,0,0-0.1,0-0.2L7.2,6.1H4c-0.2,0.1-0.5,0.1-0.7,0H0v2.1h0.2c0,0.1-0.1,0.2-0.2,0.3v4.1c0,0,0,0,0.1-0.1c0,0.7,0.8,0.4,1.1,1l0,0
	l0.1,0.1c0.1-0.1,0.2-0.2,0.3-0.4c0,0.2,0,0.3-0.1,0.5c0.1,0.1,0.1,0.1,0,0.1s0,0-0.1-0.1L1.2,14c0.2,0.1,0.3,0.3,0.4,0.5
	c-0.2,0.4-0.3-0.9-0.5-0.2c-0.1,0.2-0.1,0.2-0.2,0.2s0,0.1,0,0.2c0.2,0.1,0.4,0,0.5-0.1c-0.1,0.3-0.1,0.6-0.1,0.9
	c-0.3-0.1-0.1-0.5-0.5-0.4c0,0.2,0.5,0.6,0.2,0.8c-0.2-0.1-0.4-0.4-0.5-0.7C0.4,14.8,0.2,14.4,0,14v2.7c0.1,0.1,0.2,0.2,0.2,0.3
	C0.1,17,0,17,0,17.1v2L0.1,19c0.1,0.2,0.1,0.4,0,0.6c0.1,0.1,0.3,0,0.4-0.2c0.1,0.3-0.2,0.5-0.5,0.4v0.6c0,0.1,0,0.1,0.1,0.2h4.1
	c0-0.1,0-0.1,0-0.2c0.1,0,0.2,0.1,0.2,0.2h1.2c0,0,0.1,0,0.2,0h0.1h1c0-0.1,0-0.1-0.1-0.1H6.6c0.3,0,0.9-0.7,1.1-0.1
	c-0.1-0.2-0.2-0.2-0.2,0s0.3,0,0.2,0.3h0.1L8,20.8v-0.1c0,0,0.1,0,0.1,0c-0.1,0-0.1-0.1-0.1-0.1h0.5c0,0.1-0.1,0.1-0.1,0.1
	c0.2,0.1,0.4,0.3,0.4,0.5l2.9,2.6l0,0c0.2,0.1,0.4,0.3,0.4-0.2c0.1,0,0.1,0.2,0,0.5l1.8,1.6c0.1-0.3,0.3-1,0.6-0.6
	c-0.3,0.1,0.1,0.3,0,0.4s-0.3,0-0.3,0.2H14l0.5,0.5v-0.1c0-0.1,0-0.2-0.1-0.3s0.1,0,0.1,0v-1l0,0c0,0.5-0.5-0.2-0.3-0.4
	c0.1,0.1,0.2,0.2,0.3,0.2v-0.1c0-0.1-0.1-0.2-0.2-0.2c0.1-0.2,0.2-0.2,0.2-0.1v-6c-0.1-0.1-0.1-0.3,0-0.4c0,0,0-0.1,0-0.1v-4.5v-1.5
	c-0.1-0.2-0.2-0.4-0.3-0.6c0.1,0,0.3,0,0.3-0.1V8.7c-0.1,0-0.2-0.1-0.2-0.1s0.1-0.3,0.1-0.4c-0.2,0.2-0.1-0.3-0.3-0.1
	c0,0.1,0.1,0.1,0.2,0.3c-0.1,0.2-0.2,0.4-0.2,0.6c0.4-0.1,0.4,0.1,0.4,0.6c-0.2,0.1-0.5,0.2-0.4-0.2c0-0.1,0-0.3-0.1-0.3
	c-0.1,0-0.1-0.1-0.2-0.1c0,0.2-0.1,0.4-0.1,0.5c0,0.1,0,0.2-0.1,0.3c-0.4-0.1,0-0.7,0.1-0.9c0-0.1-0.1-0.2-0.2-0.2
	c-0.2-0.1-0.1,0.3-0.3,0c-0.1-0.2-0.2-0.3-0.2-0.5c0-0.1,0-0.2,0-0.3c0-0.3,0.1-0.1,0.1-0.3S13.2,7.2,13.3,7c0,0.1,0,0.3,0.1,0.3
	s0.1-0.2,0.2-0.2s0.1-0.1,0.1-0.2s-0.1,0-0.1,0.1s-0.2,0-0.2-0.2c0.1,0,0.2-0.1,0.3,0.1c0-0.1,0-0.2,0-0.3c-0.2,0.1-0.5,0.2-0.6-0.2
	c0.2,0,0.1-0.2,0.3-0.1s0.2,0.2,0.4,0.2c-0.1-0.1-0.1-0.2,0-0.2c0.1,0.1,0.1,0.2,0.2,0.3H14c0,0.2-0.2,0.2-0.2,0.4
	c0.1-0.1,0.1,0.3,0.3,0.4c0,0.2-0.2,0.2-0.1,0.5c0.1,0,0.2-0.1,0.2-0.2c0,0.2,0.2,0.3,0.2,0c-0.3,0.1-0.3-0.6,0-0.4
	c0.1,0.1,0.1,0.2,0.1,0.3V4.9c-0.2,0.1-0.5,0.1-0.3-0.2c0-0.1,0-0.3-0.1-0.3c-0.1-0.1-0.1-0.1-0.2-0.1c0-0.1-0.1-0.2-0.2-0.2
	c-0.2-0.1-0.1,0.3-0.3,0.1c-0.1-0.2-0.2-0.3-0.2-0.5c0-0.1,0-0.2,0-0.3c0-0.3,0.1-0.1,0.1-0.3s-0.1-0.4,0.1-0.6c0,0.1,0,0.3,0.1,0.3
	s0.1-0.2,0.2-0.2s0-0.3,0.1-0.5c-0.2,0.1-0.5,0.2-0.6-0.2c0.2,0,0.1-0.2,0.3-0.1l0.4,0.2c-0.1-0.1-0.1-0.2,0-0.2
	C14,1.8,14.1,1.9,14.1,2h0.1c0,0.2-0.2,0.2-0.2,0.4c0.1,0,0.1,0.3,0.3,0.4c0,0.2-0.2,0.2-0.1,0.5c0.1,0,0.2-0.1,0.2-0.2
	c0,0.2,0.2,0.3,0.2,0C14.2,3.2,14.2,2.5,14.5,2.8z M0.1,10.2c0.3,0,0.2,0.4,0,0.5C0,10.5,0,10.4,0.1,10.2z M0.2,10.7
	c-0.1-0.3,0.4-0.1,0.3-0.4C1,10.2,0.3,11.3,0.2,10.7z M0.8,7.6c0-0.2,0.3-0.3,0.3,0C1,8.1,0.7,7.9,0.8,7.6z M1,8.3
	C1.1,8,1.2,8,1.3,8.3C1.2,8.4,1.1,8.5,1,8.3z M1.2,9.7c-0.3-0.3,0-0.6,0-0.9C1.3,9.3,1.6,9.2,1.2,9.7L1.2,9.7z M2,13.2v-0.2
	C2.2,12.3,2.3,13.8,2,13.2z M2.8,11.7c-0.1,0.1-0.3,0.1-0.4,0.1c0,0,0,0-0.1-0.1C2.5,11.6,2.6,11.6,2.8,11.7
	C2.7,11.7,2.7,11.7,2.8,11.7L2.8,11.7z M2.7,16.6c-0.5,0,0.2-0.6-0.3-0.6c0-0.1,0-0.2,0-0.3c0.4,0.1,0.4,0.6,0.8,0.7
	C3,17,2.7,15.9,2.7,16.6L2.7,16.6z M12.9,5.5l-0.1-0.1C12.8,5.1,13,5.2,12.9,5.5z M12.8,13.4c0.2-0.1,0.1,0,0.1,0.3
	C12.8,13.7,12.8,13.6,12.8,13.4L12.8,13.4z M12.5,14.6c0-0.1,0.2-0.3,0.3-0.2C13.1,14.7,12.2,15.6,12.5,14.6z M11.7,17.6
	C11.7,17.6,11.7,17.6,11.7,17.6c-0.1,0-0.1-0.1-0.1-0.1C11.7,17.6,11.7,17.6,11.7,17.6L11.7,17.6z M11.6,16.4L11.6,16.4
	C11.6,16.4,11.6,16.4,11.6,16.4L11.6,16.4z M11.6,16.7L11.6,16.7L11.6,16.7z M11.6,17.5c-0.4,0-1-0.7-0.4-0.7c0.1,0,0.3,0.1,0.4,0.2
	l0,0c0.1,0-0.2-0.2-0.2-0.1S11.6,17.4,11.6,17.5L11.6,17.5z M11.1,18L11.1,18L11.1,18z M11.9,16.6c-0.1-0.3,0.2-0.2,0.2-0.5
	C12,16,12,15.9,11.9,15.8c0,0.2,0.1,0.5-0.1,0.7c-0.1-0.2-0.1-0.3-0.1-0.5c-1.1,0.1-0.8-0.5-1.1-1.2c0.1,0,0.2,0.1,0.2,0.1
	c0.1-0.5-0.6-0.8-0.4-0.2l0,0c-0.2,0.1-0.3-0.7-0.1-0.6c0.4-0.1,0.3,0.4,0.8,0.1c0,0.2,0,0.4,0,0.7c-0.1,0-0.2,0-0.2,0.2
	s0.3,0.3,0.2,0c0.2,0.1,0.5,0.1,0.3-0.3h0.1c0-0.1-0.1-0.2,0-0.3s0.2,0.2,0.1,0.3c0.2,0,0.4,0,0.2-0.2c-0.2-0.5-0.1-0.1,0.2-0.3
	c0,0.3,0,0.7-0.1,1c-0.9-0.6-0.2,0-0.6,0.4c0.1-0.1,0.6-0.4,0.7-0.3s0.1,0.4,0.3,0.3c-0.1,0.5-0.5-0.3-0.6,0.1h0.1
	c0,0.3,0.6,0.4,0.3,0.7C12.3,16.4,12.1,16.5,11.9,16.6L11.9,16.6z M9.2,10.5C9,9.6,9.7,10.1,9.2,10.5z M10.1,14.8
	c0,0.1,0.1,0.1,0.2,0.1s0,0.1,0,0.1c-0.1,0-0.2-0.1-0.3-0.1C10,14.9,10,14.8,10.1,14.8z M8.7,15.8c-0.1-0.2-0.2-0.3-0.4-0.3
	c0,0,0-0.1,0-0.1c0.1-0.1,0.2-0.2,0.2-0.2C8.6,15.4,8.8,15.6,8.7,15.8L8.7,15.8z M9.3,12.9c-0.1,0.2-0.2,0.2-0.3,0.2s0-0.2,0-0.3
	S9.2,12.6,9.3,12.9L9.3,12.9z M8.5,15L8.5,15z M11.3,9.8c0-0.6,0.5-0.1,0.6-0.1c-0.1,0.4-0.3,0.9-0.6,1.3L11,10.5
	c0.3,0,0.6-0.1,0.6-0.6C11.6,9.6,11.4,9.9,11.3,9.8L11.3,9.8z M11.6,11.3c-0.2-0.4-0.2-0.4,0.1-0.7C11.7,11,11.9,11.1,11.6,11.3
	L11.6,11.3z M11.1,11.4c0.3,0.3-0.1,0.5-0.2,0.7l-0.1-0.3C11,11.9,11,11.4,11.1,11.4L11.1,11.4z M12.4,17.4c0.4-0.1,0.2,0.2-0.1,0.4
	C12.3,17.6,12.3,17.5,12.4,17.4L12.4,17.4z M12.6,3.3c-0.1,0.2-0.2,0.2-0.3,0.1C12.4,3.2,12.5,3.1,12.6,3.3z M12.8,8
	c-0.3-0.4-0.8,0.7-0.9-0.2C12.4,7.9,12.7,7.2,12.8,8z M11.1,7.4c0.3-0.1,0.1,0.5,0.3,0.7C11.8,8.2,12,8.5,12,8.8c0,0,0.1,0,0.1,0.1
	s0,0-0.1,0c0,0.2,0,0.4-0.1,0.6c0-0.1-0.1-0.2-0.1-0.3c-0.1,0.1-0.1,0.1-0.2-0.1s0-0.1,0-0.2s0.1,0,0.1,0c0-0.2-0.1-0.4-0.3-0.6
	c-0.3-0.3-0.7-0.6-0.9-1C10.7,7.2,11.3,7.7,11.1,7.4L11.1,7.4z M11.1,8.4c0.2,0.8-0.7,1.3-0.9,1.9C9.9,9.9,10.8,8.7,11.1,8.4
	L11.1,8.4z M10.1,11.4c0.2,0.1,0.1,0.9-0.2,0.8c0.2-0.4,0.1-0.3-0.1-0.5C9.9,11.7,10,11.4,10.1,11.4L10.1,11.4z M9.7,11.5
	c0,0.1,0.1,0.2,0.1,0.3c0,0.1,0.1,0.7-0.1,0.7c0-0.1,0-0.1,0-0.2L9.7,11.5z M9.1,8.1c0.1-0.2,0.3-0.3,0.4-0.4
	c-0.1,0.5-0.4,0.6-0.6,1c0-0.1,0-0.1,0-0.2C9.1,8.5,9,8.3,9.1,8.1z M8.4,6.8c0.1-0.1,0.2,0.1,0.4-0.1c0,0.2,0,0.4,0.1,0.7
	C8.8,7,8.1,7.3,8.4,6.8z M8.4,9.2c0.2,0.1-0.3,0.7-0.4,0.4L8.4,9.2z M7.3,11.1c0-0.2,0-0.3,0.1-0.5c0.1,0,0.1,0.2,0.1,0.3
	c0.1,0,0.1,0,0.2,0.1L7.7,11c-0.1,0.4-0.3,0.5-0.5,0.4C7.2,11.3,7.2,11.2,7.3,11.1z M6.6,16c-0.3,0-0.4-0.6-0.7-0.8
	C6.2,15.1,6.4,15.7,6.6,16z M5.8,13.9c-0.1-0.2,0.1-0.4,0.2-0.6S5.7,13.1,5.6,13C6,12.6,6.1,13.6,5.8,13.9z M5.7,8.4v0.3
	C5.3,8.8,5.5,8.6,5.7,8.4z M4.1,16.7c-0.1,0-0.2-0.1-0.2-0.2S4.2,16.4,4.1,16.7z M4.2,11.5c0-0.3,0.3-0.3,0.3-0.1S4.3,11.6,4.2,11.5
	z M4.6,10.8c0.3,0.1,0.1,0.4,0.3,0.6C4.8,11.7,4.4,11.1,4.6,10.8z M5.3,12.5c-0.1,0.1-0.3,0-0.3-0.1s0.3-0.3,0.2-0.5
	c0.1,0.1,0.3,0.2,0.4,0.4c-0.1,0-0.5-0.1-0.5,0.1C5.2,12.4,5.2,12.5,5.3,12.5z M5.7,20.1c0-0.2,0-0.3,0.1-0.3c-0.1,0-0.2,0-0.3,0.1
	c0-0.2,0.5-0.4,0.6-0.4c0.3-0.1,0.1,0.3-0.1,0.4l0,0c0.2,0,0.4,0.2,0.3,0.3S5.8,20.3,5.7,20.1z M6,17.4C6,17.2,6.1,17,6.2,17
	C6.2,17.2,6,17.8,6,17.4z M6.2,16.8C6,16.9,6,17.1,5.9,17.2c-0.1-0.5,0.3-1.1,0.8-1.2c0,0,0.1,0,0.1,0C6.7,16.3,6.4,16.6,6.2,16.8
	L6.2,16.8z M6.9,19.4c0,0-0.3-0.3-0.1-0.4c0.3-0.1,0.5,0.1,0.6,0.3C7.1,19.4,7.2,19.8,6.9,19.4L6.9,19.4z M7.6,18.1
	c0.2-0.3,0-1.2-0.2-0.5c-0.1,0-0.1-0.1-0.1-0.2C7.5,16.6,8.2,17.9,7.6,18.1L7.6,18.1z M8.8,20.8L8.9,21C8.8,20.9,8.8,20.9,8.8,20.8
	L8.8,20.8z M9,19.3c-0.2,0.1-0.2,0.4-0.1,0.6c-0.1,0.1-0.3,0-0.4-0.1c0,0,0-0.1,0-0.1c-0.2-0.9-0.7-1.6-0.6-2.4
	c0.1,0.4,0.3,0.7,0.6,1c0.7-0.4,0.7,0.6,1,1l-0.1-0.1C9.2,19,9.2,19.2,9,19.3z M9.9,19.3c0,0.6,0.4,0,0.5,0.3c0.1,0.5-0.5,0-0.9-0.3
	C9.7,19.4,9.9,19.4,9.9,19.3L9.9,19.3z M9.7,20.2c0-0.1,0.1-0.2,0-0.4l0,0c0,0,0-0.1,0.1-0.1c0,0,0.1,0.1,0.1,0.1
	C9.9,20.1,9.8,20.2,9.7,20.2L9.7,20.2z M9.9,22.2c0-0.2,0-0.4-0.1-0.6c0.2,0,0.1,0.2,0.2,0.4L9.9,22.2z M10,20.8
	c0,0.1,0.1,0.1,0.2,0C10.5,21.2,9.5,21.5,10,20.8L10,20.8z M10.5,21.1c-0.3,0.1-0.2-0.1-0.2-0.4c0.2,0,0.1-0.2,0.1-0.4
	s0.2-0.2,0.2,0.1c-0.1,0.8,0.1,0.4,0.5,0.7C11.1,21.3,10.7,21.1,10.5,21.1L10.5,21.1z M11.6,20.2c-0.1,0-0.1,0-0.2-0.1l-0.2,0.3
	c0,0,0.1,0.1,0.1,0.1c0,0-0.1-0.1-0.1-0.1l-0.1,0.2c0-0.2-0.1-0.3-0.3-0.2c0,0.1,0,0.2,0,0.2c0,0,0,0,0,0c-0.1-0.2,0-0.8,0.1-0.7
	s0,0.3,0.2,0.4l0.2,0.1l0,0c0,0-0.1,0-0.1,0c-0.1-0.6-0.5-0.6-0.8-1l0,0c-0.1-0.1-0.1-0.1-0.1-0.2c0,0,0.1,0,0.1,0c0,0,0-0.1,0-0.1
	c-0.2-0.2-0.6-0.5-0.4-0.1c0,0-0.1,0-0.1,0v-0.1c0-0.2-0.1-0.3-0.1-0.5c0,0-0.1,0.1-0.1,0.1c-0.2-0.3-0.4-0.6-0.6-0.6
	c-0.4,0-0.6,0.3-0.7-0.3s0.3,0,0.1-0.4c0.2-0.1,0.3-0.4,0.6-0.2c0-0.7-0.5-0.4-0.7-0.9c0.1,0.2,0.3,0.3,0.5,0.3
	c0.4,0,0.8,0.1,1.1,0.4c0.1,0.2,0.4,0.1,0.5,0.3s-0.1,0.4-0.3,0.3l0,0c0-0.1,0-0.2,0-0.3c-0.4,0.3-0.6,0.2-0.3,0.7
	c0.2,0.3-0.1,0.7,0.4,0.7c0-0.3-0.2-0.4-0.2-0.6c0.2,0.1,0.4,0.2,0.7,0.3c0-0.2-0.2-0.4-0.2-0.6c0.1-0.1,0.1-0.3,0.1-0.4
	s0.5-0.6,0.6-0.6c-0.1-0.1-0.2-0.2-0.3-0.1c0-0.3,0.5-0.1,0.5-0.5c0.1,0,0.1,0,0.1,0.1c-0.1,0.2,0.1,0.3,0.3,0.5
	c-0.1,0.1-0.3,0.1-0.4,0.1c0,0.3-0.3,0.4-0.3,0.8v0.5c0,0.1,0,0.2,0,0.4c0.1,0.2,0.3,0.1,0.4,0.2c0,0,0,0.1,0.1,0.1
	c0,0.1,0,0.2,0,0.2l0.1,0.1l0,0c-0.4,0.2-0.3,0.2-0.1,0.4c0,0,0,0.1,0,0.1c0,0,0,0,0,0.1c0,0-0.1,0-0.1-0.1c0.1,0.2-0.1,0.3-0.1,0.5
	h0.3c0,0.1,0.1,0.2,0.1,0.3l0.2-0.2c0,0,0-0.1-0.1-0.1h0.1c0-0.1-0.1-0.1-0.1-0.1l0,0l0,0c0.1-0.1,0.1,0,0.2,0.1l-0.1,0.1
	C11.7,20,11.8,20.2,11.6,20.2L11.6,20.2z M8.2,17c0,0,0.1,0.1,0.1,0.2l0,0L8.2,17z M12.2,20.2c0-0.5,0-0.7-0.4-0.8
	c-0.1-0.1-0.2-0.1-0.3-0.2c0-0.1,0.1-0.2,0.2-0.3c0.1,0.1,0.2,0.2,0.3,0.3l0,0c0.1,0.1,0.1,0.2,0.2,0.2c0.1-0.1,0.2-0.1,0.3-0.1
	c0.1,0,0.1,0.1,0.1,0.2c-0.1,0.1-0.1-0.1-0.2,0c0,0,0,0.1-0.1,0.1c0.2,0.1,0.2,0.9,0.1,0.7C12.3,20.3,12.2,20.2,12.2,20.2L12.2,20.2
	z M12.4,21.9c0.3,0.3,0.7,0.4,1,0.7C13.1,22.8,12.1,22.5,12.4,21.9L12.4,21.9z M12.8,20.3c-0.4,0-0.1-0.7,0.1-0.5
	C12.8,20,12.9,20.1,12.8,20.3L12.8,20.3z M14,16.8c0-0.2,0-0.5-0.1-0.6c0.3,0,0.3,0.2,0.3,0.5L14,16.8z M14,13.1
	c0.4,0,0.1,1.1,0,1.1c-0.1-0.4-0.2-0.8-0.2-1.1L14,13.1z M13.7,9.9c0.1,0.2,0.1,0.4-0.1,0.2S13.7,9.9,13.7,9.9L13.7,9.9z M13.4,11
	c0-0.1,0.1-0.3,0.2-0.2l-0.1,0.1c-0.1,0.1-0.1,0.4-0.2,0.1C13.3,10.9,13.4,11,13.4,11z M14,16.8c-0.2,0.3-1.1,1.8-1.4,1.4
	c-0.1-0.2-0.1-0.4,0.1-0.6c0,0.1,0.1,0.2,0.1,0.3C13.2,17.7,13.5,17,14,16.8z"/>
<path class="st0" d="M25.5,16.4h-0.1c0-0.2,0.3,0,0.2-0.2c0,0,0,0,0.1,0c0.1-0.2,0.1-0.3,0.2-0.5c-0.1-0.1-0.2-0.1-0.3-0.2
	c0.1,0,0.3,0.1,0.4,0.1l0.2-0.6c-0.1,0-0.1,0-0.2,0c0-0.1,0.1-0.2,0.2-0.2c0.1-0.4,0.2-0.7,0.2-1.1c0.1-0.4,0.1-0.9,0.1-1.3l0,0
	c0,0,0-0.1,0-0.1c0,0,0,0,0,0c0-1-0.2-2-0.5-3c-0.1-0.1-0.2-0.2-0.2-0.3c-0.1,0.2-0.4-0.1-0.6-0.2c0.2,0-0.1-0.2,0-0.3
	c-0.2-0.1-0.4,0.2-0.4-0.2c0-0.1-0.2-0.1-0.3-0.2s-0.2-0.3-0.3-0.4S24,7.8,24,7.7l-0.2-0.2c0.1-0.1,0.1,0.3,0.3,0.2
	c0.2,0.2,0.5,0.4,0.8,0.5c0.4,0.2,0.7,0.5,1,0.8h0.1c-0.1-0.2-0.2-0.4-0.2-0.6l-0.2,0.2c-0.1-0.1,0.1-0.1,0.2-0.2
	c-0.8-1.7-2-3-3.6-4l-1.1,1.1c0.8,0.4,1.5,1,2.1,1.7c0.1-0.1,0.2-0.1,0.4,0c-0.1,0.1-0.1,0.2-0.1,0.3l0.1,0.2c0-0.1,0-0.3,0-0.4
	c0.3,0,0.4-0.4,0.5-0.6s0.2-0.2,0.2,0s-0.1,0.2-0.2,0.3s-0.1,0.4-0.3,0.5s-0.1,0.2-0.1,0.3c0.5,0.7,1,1.6,1.2,2.4
	c0-0.1,0.3-0.1,0.3,0s-0.3-0.1-0.3,0.1l0,0v0.1l0,0c0,0,0,0.1,0,0.1l0,0c0,0,0.1,0.1,0.1,0.1c0,0,0,0.1-0.1,0.1
	c0.2,0.6,0.2,1.3,0.2,1.9c0.1,0,0.2,0,0.2,0.1c-0.1,0.1-0.1,0-0.2,0c0,0.4,0,0.7-0.1,1.1L24.8,14c0,0,0,0,0-0.1
	c0,0.1,0.1,0.2,0.1,0.3c-0.1,0-0.1,0-0.1-0.1c-0.1,0.4-0.2,0.8-0.4,1.2c0.1,0.1,0.1,0.2,0,0.2c-0.1,0.1-0.1,0-0.1,0v0.1
	c0.1,0.1,0.3,0,0.1,0.2c0,0-0.1,0-0.1,0c-0.2,0.3-0.3,0.7-0.5,1c0,0.1,0,0.2,0,0.3l0,0l0,0c0,0,0,0,0,0s0,0,0,0.1s0.1,0.1,0.1,0.1
	s-0.1,0-0.2,0c0,0,0,0,0-0.1l0,0c0,0-0.1,0.1-0.1,0.1s0-0.1,0-0.2c-0.3,0.4-0.6,0.7-0.9,1c0,0.1,0,0.1,0,0.2h-0.2
	c-0.8,0.7-1.7,1.3-2.7,1.6c0,0,0,0.1,0,0.1c0,0.1,0.1,0.1,0.2,0.1s0,0,0.1,0l0,0h0.1c0,0-0.1,0-0.1,0c0,0,0,0,0,0h-0.1
	c-0.1,0-0.1,0.1-0.1,0.1c-0.1,0.2,0.1,0,0.1,0s0,0.2,0,0.3s0.2,0,0.2,0c0.1-0.1-0.3-0.1-0.1-0.2c0,0,0.1-0.3,0.2-0.2
	c-0.1,0.1,0.1,0.4,0.2,0.4c-0.2,0-0.2,0.2-0.4,0.3c-0.1-0.1,0-0.2-0.2-0.2c-0.1,0-0.2,0-0.3,0l0.4,0.8c0.3-0.1,0.7-0.2,1-0.4
	c0-0.1,0.2-0.2,0.2-0.3s0,0.1,0,0.2l0,0c0.1-0.3,0.4-0.5,0.2-0.8c0.3-0.1,0.2,0.3,0.4,0.2c-0.1,0.1-0.1,0.2-0.1,0.3
	C23.3,19.5,24.6,18,25.5,16.4L25.5,16.4z M24.1,6.6C24,6.4,24.6,6.5,24.1,6.6z M20.6,20c0-0.1,0.1-0.1,0-0.1c0-0.1,0.1-0.2,0.2-0.2
	C20.8,19.9,20.8,20,20.6,20z M22.1,19c-0.1,0-0.2-0.1-0.1-0.2s0.1,0.1,0.1,0S22.2,18.9,22.1,19z M23.1,18c0-0.1,0.1-0.1,0.2-0.1h0.1
	C23.5,18.1,23.3,18,23.1,18L23.1,18z M23.3,19c0-0.2,0.2-0.1,0.2,0.1C23.5,19,23.4,19,23.3,19L23.3,19z M24.3,16.1
	c0,0,0.2-0.2,0.2-0.2C24.5,16,24.6,16.1,24.3,16.1C24.4,16.1,24.3,16.1,24.3,16.1L24.3,16.1z M24.3,17C24.3,17,24.2,17,24.3,17
	c-0.1-0.1-0.1-0.2,0.1-0.2c0,0.1,0,0.1,0,0.2L24.3,17z M25.5,13.2C25.5,13.2,25.4,13.2,25.5,13.2c-0.1,0.1-0.1,0.1-0.1,0.1
	C25.3,13.3,25.5,13,25.5,13.2L25.5,13.2z M25.4,11.4c0.1,0,0,0.2,0,0.3c0,0-0.1-0.1-0.1-0.1C25.4,11.5,25.4,11.5,25.4,11.4
	L25.4,11.4z M25.4,13c-0.1,0.1,0,0.3-0.1,0.3h-0.1C25.2,13.2,25.3,12.9,25.4,13z M25,16.1v0.2C24.8,16.2,24.9,16.1,25,16.1z
	 M24.9,15.6L24.9,15.6c0.1,0,0.2-0.1,0.3-0.1C25.1,15.6,25,15.7,24.9,15.6L24.9,15.6z"/>
<path class="st0" d="M22.5,9.1c-0.1,0.1,0,0.1-0.1,0.2s0,0.1-0.1,0.1s-0.1,0.3-0.2,0.4s-0.3-0.3-0.3-0.1S22,9.9,22,10
	c0,0,0,0.1-0.1,0.1c0.4,0.9,0.5,1.9,0.4,2.9l0,0c0.1,0.1,0.3,0.2,0.1,0.3h-0.1c0,0,0,0.1,0,0.1c0,0.1,0,0.1,0.1,0.1
	c0.1,0,0.2,0.1,0.1,0.2c-0.1-0.1-0.2-0.1-0.3-0.1c0,0,0,0.1,0,0.2l0,0c0,0.1-0.1,0.2-0.1,0.4c0,0,0.1,0,0.1,0c0,0,0,0.1,0,0.1
	c-0.1,0.1-0.2,0.1-0.2,0L22,14.5c0,0,0,0.1,0,0.1c-0.3,0.6-0.7,1.2-1.2,1.7c0,0,0,0,0.1,0s0.2,0.2,0,0.3c0,0-0.1-0.1-0.2-0.2l0,0
	c0,0.1,0,0.2,0,0.3c0-0.1-0.1,0-0.1-0.1l0,0c-0.7,0.6-1.5,1-2.4,1.2l0.2,0.5c0.1,0,0.2,0,0.1,0.1l0,0v0.1c0.1,0,0.3,0.1,0.4,0.1
	c0.2,0.1,0.2-0.2,0.4,0s0.1,0.2,0.1,0.2l0,0c1.2-0.5,2.3-1.3,3.1-2.4c0,0-0.1,0-0.1,0c0.1-0.1,0-0.1,0.1-0.1h0.1
	c0.4-0.5,0.7-1.1,0.9-1.8c0,0-0.1-0.1-0.2-0.1s0.1-0.2,0.2-0.2c0.1-0.2,0.1-0.5,0.2-0.7c0.1-0.9,0.1-1.7-0.1-2.6c0,0,0,0,0-0.1l0,0
	c0,0,0,0,0-0.1s-0.1,0-0.1-0.1h0.1C23.4,10,23.2,9.5,22.9,9l0,0C22.9,9,22.6,9.1,22.5,9.1z M19.5,17.6c-0.1,0-0.2,0.2-0.2,0.1
	s0-0.2,0.1-0.2c-0.1-0.1-0.2-0.1-0.2-0.2S19.6,17.6,19.5,17.6C19.6,17.8,19.5,17.7,19.5,17.6L19.5,17.6z M19.8,17.8
	c0,0,0.2,0.4,0.2,0.4C19.8,18.3,19.6,17.9,19.8,17.8L19.8,17.8z M20.5,17.3c0-0.1,0.1-0.1,0.1-0.2C20.8,17.3,20.6,17.4,20.5,17.3
	L20.5,17.3z M21.3,16.1c0,0,0,0.1,0.1,0.1c-0.1,0.1-0.2,0-0.2,0c0,0,0,0,0,0L21.3,16.1c0,0,0.1-0.1,0-0.2c0.1-0.1,0.1,0.1,0.2,0
	c-0.1-0.1,0-0.2,0-0.2C21.8,15.8,21.5,16.2,21.3,16.1L21.3,16.1z M21.9,16.5c-0.1-0.1-0.1-0.3,0-0.4s0.1-0.2,0-0.3s0.1-0.1,0.1-0.2
	c0.1,0.2,0.1,0.3-0.1,0.4C21.7,16.1,22,16.4,21.9,16.5L21.9,16.5z M23.2,12c0,0.1,0,0.1,0,0.2C23.1,12.3,23.2,12.1,23.2,12z
	 M22.2,16.1C22.2,15.8,22.6,16.2,22.2,16.1z M23.2,10c0.2,0,0,0.5-0.1,0.2C23.2,10.1,23.2,10.1,23.2,10z M22.5,11.1
	c0,0-0.2-0.3-0.2-0.4c0.3,0-0.1-0.3-0.1-0.3s0.2,0,0.2,0s0.1,0.2,0.1,0.3S22.8,11.1,22.5,11.1L22.5,11.1z"/>
<path class="st0" d="M21.3,9V8.8c0,0,0.2,0.3,0.2,0.2s-0.1,0-0.1,0c0,0,0,0,0.1,0l0,0c0.1-0.1,0.2-0.2,0.3-0.2c0-0.1,0-0.2,0-0.3
	s0.2,0.1,0.2,0c0,0.1,0,0.1,0,0.2c0.2-0.1,0.3-0.2,0.4-0.4l-0.2-0.2l0,0l0,0c-0.5-0.7-1.2-1.2-1.9-1.7c0,0.2-0.1,0.1-0.2,0.1
	c0-0.1,0.1-0.1,0.1-0.1L20,6.3l-0.9,1c0.6,0.2,1.1,0.6,1.5,1c0.1-0.1,0.4,0,0.4,0s0,0.2-0.1,0.2s0.1-0.1,0-0.2s-0.1,0-0.2,0
	c0.2,0.2,0.4,0.4,0.5,0.6l0,0C21.2,8.8,21.3,8.9,21.3,9z M20.2,7.7c0.1-0.2,0.2-0.3,0.4-0.3C20.5,7.5,20.3,7.6,20.2,7.7z M20.9,7.7
	c0-0.3,0,0,0.2,0C21.1,7.7,21,7.6,20.9,7.7L20.9,7.7z M21.4,7.9L21.4,7.9C21.3,8.2,21,7.9,21.4,7.9L21.4,7.9z M21.4,8.1
	c0,0,0,0.1,0,0.1C21.3,8.3,21.2,8.2,21.4,8.1L21.4,8.1z"/>
<path class="st0" d="M20.6,12.2c0-0.1,0-0.1-0.1-0.2c0,0.1,0,0.2,0,0.3c0-0.1-0.1-0.2-0.2-0.1h-0.1l0,0c0,0-0.3,0-0.4,0.1
	s0,0.5,0.2,0.3s0.1-0.2,0.2-0.3c0.1,0.3,0.2,0,0.3,0s0,0.2,0.1,0.2c-0.1,0.1-0.2,0.2-0.3,0.2c0,0,0-0.1,0-0.1
	c-0.2,0.1-0.5,0.2-0.8,0.1l0,0l0,0c-0.2,1.3-1.2,2.4-2.5,2.6l0.5,1l0,0c0-0.1,0-0.1,0-0.2h0.1c0,0.1,0,0.1,0,0.2h0.1
	c0,0,0.1,0,0.2,0c0-0.1,0-0.1,0-0.2c0.1,0,0.2,0,0.2-0.1c0.1,0.1,0.4,0,0.4-0.1c0,0,0,0.1,0,0.2c0.3,0.1,0.1,0.3,0,0
	c-0.1,0.2-0.7,0.5-0.9,0.4l0.1,0.2c0.1,0,0.2-0.1,0.4-0.1v0h0.1c1.4-0.6,2.5-1.9,2.7-3.4c0-0.2,0-0.4,0-0.5c0-0.1-0.1-0.1,0-0.1
	c0-0.1,0-0.3,0-0.4h-0.1C20.7,12.1,20.7,12.1,20.6,12.2z M18.5,15.1c0-0.1-0.2-0.2,0-0.3S18.6,15,18.5,15.1z M19.2,14.1
	c-0.2,0.2-0.1-0.1-0.2,0c0.1-0.1,0.3-0.2,0.4-0.3v0.1C19.3,13.9,19.3,14.1,19.2,14.1L19.2,14.1z M19.4,15.2c-0.1,0,0-0.1,0-0.2
	C19.6,15,19.5,15.3,19.4,15.2L19.4,15.2z M19.6,15c0-0.1,0.2-0.4,0.2-0.1C19.9,15,19.7,15.1,19.6,15L19.6,15z"/>
<path class="st0" d="M19.5,11.6c0.1,0,0.3,0.1,0.1-0.1s0.1-0.4,0.2-0.5s0.1-0.3,0.2-0.4s0.1-0.1,0.1-0.1c0.1,0,0.1-0.1,0.1-0.2
	c-0.2-0.4-0.6-0.8-0.9-1.1c-0.1-0.1-0.1,0-0.2,0.1c0-0.1-0.2-0.2-0.1-0.4H19c0,0.2-0.1,0.3,0.1,0.4l-0.1,0c0-0.1-0.1-0.1-0.1-0.2
	c-0.1,0.1,0.1,0.2-0.1,0.2s-0.1,0.1-0.1-0.1c0-0.2,0-0.4,0.1-0.5l-0.1-0.1l0-0.1c-0.2-0.1-0.4-0.2-0.7-0.3l-1,1.1
	c1.2,0.2,2.2,1.2,2.4,2.4C19.5,11.8,19.5,11.7,19.5,11.6z M18.4,9.1C18.3,8.9,18,9,17.9,8.8C18.1,8.8,18.2,8.9,18.4,9.1
	C18.4,9,18.4,9.1,18.4,9.1z M19.1,10.4c0-0.2,0.2-0.2,0.1,0H19.1z M19.5,10.6c-0.1,0-0.1-0.2-0.1-0.2s0.1,0.1,0.2,0.1
	c0,0,0-0.1,0-0.1c0.1,0,0.1-0.1,0.1-0.2c0.1,0,0.1,0.1,0.1,0.2S19.5,10.5,19.5,10.6z"/>
</svg>
